0
SECTION
2
HEADER
9
$INSUNITS
70
1
0
ENDSEC
0
SECTION
2
TABLES
0
TABLE
2
LAYER
0
ENDTAB
0
ENDSEC
0
SECTION
2
ENTITIES
0
LINE
8
0
10
0
20
0
11
2
21
0
0
LINE
8
0
10
2
20
0
11
2
21
3
0
LINE
8
0
10
2
20
3
11
0
21
3
0
LINE
8
0
10
0
20
3
11
0
21
0
0
CIRCLE
8
0
10
0.16
20
0.1490004
40
0.085
0
CIRCLE
8
0
10
0.4
20
0.1490004
40
0.085
0
CIRCLE
8
0
10
0.64
20
0.1490004
40
0.085
0
CIRCLE
8
0
10
0.88
20
0.1490004
40
0.085
0
CIRCLE
8
0
10
1.12
20
0.1490004
40
0.085
0
CIRCLE
8
0
10
1.36
20
0.1490004
40
0.085
0
CIRCLE
8
0
10
1.6
20
0.1490004
40
0.085
0
CIRCLE
8
0
10
1.84
20
0.1490004
40
0.085
0
CIRCLE
8
0
10
0.28
20
0.3568465
40
0.085
0
CIRCLE
8
0
10
0.52
20
0.3568465
40
0.085
0
CIRCLE
8
0
10
0.76
20
0.3568465
40
0.085
0
CIRCLE
8
0
10
1
20
0.3568465
40
0.085
0
CIRCLE
8
0
10
1.24
20
0.3568465
40
0.085
0
CIRCLE
8
0
10
1.48
20
0.3568465
40
0.085
0
CIRCLE
8
0
10
1.72
20
0.3568465
40
0.085
0
CIRCLE
8
0
10
0.16
20
0.5646926
40
0.085
0
CIRCLE
8
0
10
0.4
20
0.5646926
40
0.085
0
CIRCLE
8
0
10
0.64
20
0.5646926
40
0.085
0
CIRCLE
8
0
10
0.88
20
0.5646926
40
0.085
0
CIRCLE
8
0
10
1.12
20
0.5646926
40
0.085
0
CIRCLE
8
0
10
1.36
20
0.5646926
40
0.085
0
CIRCLE
8
0
10
1.6
20
0.5646926
40
0.085
0
CIRCLE
8
0
10
1.84
20
0.5646926
40
0.085
0
CIRCLE
8
0
10
0.28
20
0.7725387
40
0.085
0
CIRCLE
8
0
10
0.52
20
0.7725387
40
0.085
0
CIRCLE
8
0
10
0.76
20
0.7725387
40
0.085
0
CIRCLE
8
0
10
1
20
0.7725387
40
0.085
0
CIRCLE
8
0
10
1.24
20
0.7725387
40
0.085
0
CIRCLE
8
0
10
1.48
20
0.7725387
40
0.085
0
CIRCLE
8
0
10
1.72
20
0.7725387
40
0.085
0
CIRCLE
8
0
10
0.16
20
0.9803848
40
0.085
0
CIRCLE
8
0
10
0.4
20
0.9803848
40
0.085
0
CIRCLE
8
0
10
0.64
20
0.9803848
40
0.085
0
CIRCLE
8
0
10
0.88
20
0.9803848
40
0.085
0
CIRCLE
8
0
10
1.12
20
0.9803848
40
0.085
0
CIRCLE
8
0
10
1.36
20
0.9803848
40
0.085
0
CIRCLE
8
0
10
1.6
20
0.9803848
40
0.085
0
CIRCLE
8
0
10
1.84
20
0.9803848
40
0.085
0
CIRCLE
8
0
10
0.28
20
1.1882309
40
0.085
0
CIRCLE
8
0
10
0.52
20
1.1882309
40
0.085
0
CIRCLE
8
0
10
0.76
20
1.1882309
40
0.085
0
CIRCLE
8
0
10
1
20
1.1882309
40
0.085
0
CIRCLE
8
0
10
1.24
20
1.1882309
40
0.085
0
CIRCLE
8
0
10
1.48
20
1.1882309
40
0.085
0
CIRCLE
8
0
10
1.72
20
1.1882309
40
0.085
0
CIRCLE
8
0
10
0.16
20
1.396077
40
0.085
0
CIRCLE
8
0
10
0.4
20
1.396077
40
0.085
0
CIRCLE
8
0
10
0.64
20
1.396077
40
0.085
0
CIRCLE
8
0
10
0.88
20
1.396077
40
0.085
0
CIRCLE
8
0
10
1.12
20
1.396077
40
0.085
0
CIRCLE
8
0
10
1.36
20
1.396077
40
0.085
0
CIRCLE
8
0
10
1.6
20
1.396077
40
0.085
0
CIRCLE
8
0
10
1.84
20
1.396077
40
0.085
0
CIRCLE
8
0
10
0.28
20
1.603923
40
0.085
0
CIRCLE
8
0
10
0.52
20
1.603923
40
0.085
0
CIRCLE
8
0
10
0.76
20
1.603923
40
0.085
0
CIRCLE
8
0
10
1
20
1.603923
40
0.085
0
CIRCLE
8
0
10
1.24
20
1.603923
40
0.085
0
CIRCLE
8
0
10
1.48
20
1.603923
40
0.085
0
CIRCLE
8
0
10
1.72
20
1.603923
40
0.085
0
CIRCLE
8
0
10
0.16
20
1.8117691
40
0.085
0
CIRCLE
8
0
10
0.4
20
1.8117691
40
0.085
0
CIRCLE
8
0
10
0.64
20
1.8117691
40
0.085
0
CIRCLE
8
0
10
0.88
20
1.8117691
40
0.085
0
CIRCLE
8
0
10
1.12
20
1.8117691
40
0.085
0
CIRCLE
8
0
10
1.36
20
1.8117691
40
0.085
0
CIRCLE
8
0
10
1.6
20
1.8117691
40
0.085
0
CIRCLE
8
0
10
1.84
20
1.8117691
40
0.085
0
CIRCLE
8
0
10
0.28
20
2.0196152
40
0.085
0
CIRCLE
8
0
10
0.52
20
2.0196152
40
0.085
0
CIRCLE
8
0
10
0.76
20
2.0196152
40
0.085
0
CIRCLE
8
0
10
1
20
2.0196152
40
0.085
0
CIRCLE
8
0
10
1.24
20
2.0196152
40
0.085
0
CIRCLE
8
0
10
1.48
20
2.0196152
40
0.085
0
CIRCLE
8
0
10
1.72
20
2.0196152
40
0.085
0
CIRCLE
8
0
10
0.16
20
2.2274613
40
0.085
0
CIRCLE
8
0
10
0.4
20
2.2274613
40
0.085
0
CIRCLE
8
0
10
0.64
20
2.2274613
40
0.085
0
CIRCLE
8
0
10
0.88
20
2.2274613
40
0.085
0
CIRCLE
8
0
10
1.12
20
2.2274613
40
0.085
0
CIRCLE
8
0
10
1.36
20
2.2274613
40
0.085
0
CIRCLE
8
0
10
1.6
20
2.2274613
40
0.085
0
CIRCLE
8
0
10
1.84
20
2.2274613
40
0.085
0
CIRCLE
8
0
10
0.28
20
2.4353074
40
0.085
0
CIRCLE
8
0
10
0.52
20
2.4353074
40
0.085
0
CIRCLE
8
0
10
0.76
20
2.4353074
40
0.085
0
CIRCLE
8
0
10
1
20
2.4353074
40
0.085
0
CIRCLE
8
0
10
1.24
20
2.4353074
40
0.085
0
CIRCLE
8
0
10
1.48
20
2.4353074
40
0.085
0
CIRCLE
8
0
10
1.72
20
2.4353074
40
0.085
0
CIRCLE
8
0
10
0.16
20
2.6431535
40
0.085
0
CIRCLE
8
0
10
0.4
20
2.6431535
40
0.085
0
CIRCLE
8
0
10
0.64
20
2.6431535
40
0.085
0
CIRCLE
8
0
10
0.88
20
2.6431535
40
0.085
0
CIRCLE
8
0
10
1.12
20
2.6431535
40
0.085
0
CIRCLE
8
0
10
1.36
20
2.6431535
40
0.085
0
CIRCLE
8
0
10
1.6
20
2.6431535
40
0.085
0
CIRCLE
8
0
10
1.84
20
2.6431535
40
0.085
0
CIRCLE
8
0
10
0.28
20
2.8509996
40
0.085
0
CIRCLE
8
0
10
0.52
20
2.8509996
40
0.085
0
CIRCLE
8
0
10
0.76
20
2.8509996
40
0.085
0
CIRCLE
8
0
10
1
20
2.8509996
40
0.085
0
CIRCLE
8
0
10
1.24
20
2.8509996
40
0.085
0
CIRCLE
8
0
10
1.48
20
2.8509996
40
0.085
0
CIRCLE
8
0
10
1.72
20
2.8509996
40
0.085
0
ENDSEC
0
EOF
