0
SECTION
2
HEADER
9
$INSUNITS
70
1
0
ENDSEC
0
SECTION
2
TABLES
0
TABLE
2
LAYER
0
ENDTAB
0
ENDSEC
0
SECTION
2
ENTITIES
0
LINE
8
0
10
0
20
0
11
2
21
0
0
LINE
8
0
10
2
20
0
11
2
21
3
0
LINE
8
0
10
2
20
3
11
0
21
3
0
LINE
8
0
10
0
20
3
11
0
21
0
0
CIRCLE
8
0
10
0.17323
20
0.1702786
40
0.0859375
0
CIRCLE
8
0
10
0.40945
20
0.1702786
40
0.0859375
0
CIRCLE
8
0
10
0.64567
20
0.1702786
40
0.0859375
0
CIRCLE
8
0
10
0.88189
20
0.1702786
40
0.0859375
0
CIRCLE
8
0
10
1.11811
20
0.1702786
40
0.0859375
0
CIRCLE
8
0
10
1.35433
20
0.1702786
40
0.0859375
0
CIRCLE
8
0
10
1.59055
20
0.1702786
40
0.0859375
0
CIRCLE
8
0
10
1.82677
20
0.1702786
40
0.0859375
0
CIRCLE
8
0
10
0.29134
20
0.3748511
40
0.0859375
0
CIRCLE
8
0
10
0.52756
20
0.3748511
40
0.0859375
0
CIRCLE
8
0
10
0.76378
20
0.3748511
40
0.0859375
0
CIRCLE
8
0
10
1
20
0.3748511
40
0.0859375
0
CIRCLE
8
0
10
1.23622
20
0.3748511
40
0.0859375
0
CIRCLE
8
0
10
1.47244
20
0.3748511
40
0.0859375
0
CIRCLE
8
0
10
1.70866
20
0.3748511
40
0.0859375
0
CIRCLE
8
0
10
0.17323
20
0.5794237
40
0.0859375
0
CIRCLE
8
0
10
0.40945
20
0.5794237
40
0.0859375
0
CIRCLE
8
0
10
0.64567
20
0.5794237
40
0.0859375
0
CIRCLE
8
0
10
0.88189
20
0.5794237
40
0.0859375
0
CIRCLE
8
0
10
1.11811
20
0.5794237
40
0.0859375
0
CIRCLE
8
0
10
1.35433
20
0.5794237
40
0.0859375
0
CIRCLE
8
0
10
1.59055
20
0.5794237
40
0.0859375
0
CIRCLE
8
0
10
1.82677
20
0.5794237
40
0.0859375
0
CIRCLE
8
0
10
0.29134
20
0.7839962
40
0.0859375
0
CIRCLE
8
0
10
0.52756
20
0.7839962
40
0.0859375
0
CIRCLE
8
0
10
0.76378
20
0.7839962
40
0.0859375
0
CIRCLE
8
0
10
1
20
0.7839962
40
0.0859375
0
CIRCLE
8
0
10
1.23622
20
0.7839962
40
0.0859375
0
CIRCLE
8
0
10
1.47244
20
0.7839962
40
0.0859375
0
CIRCLE
8
0
10
1.70866
20
0.7839962
40
0.0859375
0
CIRCLE
8
0
10
0.17323
20
0.9885687
40
0.0859375
0
CIRCLE
8
0
10
0.40945
20
0.9885687
40
0.0859375
0
CIRCLE
8
0
10
0.64567
20
0.9885687
40
0.0859375
0
CIRCLE
8
0
10
0.88189
20
0.9885687
40
0.0859375
0
CIRCLE
8
0
10
1.11811
20
0.9885687
40
0.0859375
0
CIRCLE
8
0
10
1.35433
20
0.9885687
40
0.0859375
0
CIRCLE
8
0
10
1.59055
20
0.9885687
40
0.0859375
0
CIRCLE
8
0
10
1.82677
20
0.9885687
40
0.0859375
0
CIRCLE
8
0
10
0.29134
20
1.1931412
40
0.0859375
0
CIRCLE
8
0
10
0.52756
20
1.1931412
40
0.0859375
0
CIRCLE
8
0
10
0.76378
20
1.1931412
40
0.0859375
0
CIRCLE
8
0
10
1
20
1.1931412
40
0.0859375
0
CIRCLE
8
0
10
1.23622
20
1.1931412
40
0.0859375
0
CIRCLE
8
0
10
1.47244
20
1.1931412
40
0.0859375
0
CIRCLE
8
0
10
1.70866
20
1.1931412
40
0.0859375
0
CIRCLE
8
0
10
0.17323
20
1.3977137
40
0.0859375
0
CIRCLE
8
0
10
0.40945
20
1.3977137
40
0.0859375
0
CIRCLE
8
0
10
0.64567
20
1.3977137
40
0.0859375
0
CIRCLE
8
0
10
0.88189
20
1.3977137
40
0.0859375
0
CIRCLE
8
0
10
1.11811
20
1.3977137
40
0.0859375
0
CIRCLE
8
0
10
1.35433
20
1.3977137
40
0.0859375
0
CIRCLE
8
0
10
1.59055
20
1.3977137
40
0.0859375
0
CIRCLE
8
0
10
1.82677
20
1.3977137
40
0.0859375
0
CIRCLE
8
0
10
0.29134
20
1.6022863
40
0.0859375
0
CIRCLE
8
0
10
0.52756
20
1.6022863
40
0.0859375
0
CIRCLE
8
0
10
0.76378
20
1.6022863
40
0.0859375
0
CIRCLE
8
0
10
1
20
1.6022863
40
0.0859375
0
CIRCLE
8
0
10
1.23622
20
1.6022863
40
0.0859375
0
CIRCLE
8
0
10
1.47244
20
1.6022863
40
0.0859375
0
CIRCLE
8
0
10
1.70866
20
1.6022863
40
0.0859375
0
CIRCLE
8
0
10
0.17323
20
1.8068588
40
0.0859375
0
CIRCLE
8
0
10
0.40945
20
1.8068588
40
0.0859375
0
CIRCLE
8
0
10
0.64567
20
1.8068588
40
0.0859375
0
CIRCLE
8
0
10
0.88189
20
1.8068588
40
0.0859375
0
CIRCLE
8
0
10
1.11811
20
1.8068588
40
0.0859375
0
CIRCLE
8
0
10
1.35433
20
1.8068588
40
0.0859375
0
CIRCLE
8
0
10
1.59055
20
1.8068588
40
0.0859375
0
CIRCLE
8
0
10
1.82677
20
1.8068588
40
0.0859375
0
CIRCLE
8
0
10
0.29134
20
2.0114313
40
0.0859375
0
CIRCLE
8
0
10
0.52756
20
2.0114313
40
0.0859375
0
CIRCLE
8
0
10
0.76378
20
2.0114313
40
0.0859375
0
CIRCLE
8
0
10
1
20
2.0114313
40
0.0859375
0
CIRCLE
8
0
10
1.23622
20
2.0114313
40
0.0859375
0
CIRCLE
8
0
10
1.47244
20
2.0114313
40
0.0859375
0
CIRCLE
8
0
10
1.70866
20
2.0114313
40
0.0859375
0
CIRCLE
8
0
10
0.17323
20
2.2160038
40
0.0859375
0
CIRCLE
8
0
10
0.40945
20
2.2160038
40
0.0859375
0
CIRCLE
8
0
10
0.64567
20
2.2160038
40
0.0859375
0
CIRCLE
8
0
10
0.88189
20
2.2160038
40
0.0859375
0
CIRCLE
8
0
10
1.11811
20
2.2160038
40
0.0859375
0
CIRCLE
8
0
10
1.35433
20
2.2160038
40
0.0859375
0
CIRCLE
8
0
10
1.59055
20
2.2160038
40
0.0859375
0
CIRCLE
8
0
10
1.82677
20
2.2160038
40
0.0859375
0
CIRCLE
8
0
10
0.29134
20
2.4205763
40
0.0859375
0
CIRCLE
8
0
10
0.52756
20
2.4205763
40
0.0859375
0
CIRCLE
8
0
10
0.76378
20
2.4205763
40
0.0859375
0
CIRCLE
8
0
10
1
20
2.4205763
40
0.0859375
0
CIRCLE
8
0
10
1.23622
20
2.4205763
40
0.0859375
0
CIRCLE
8
0
10
1.47244
20
2.4205763
40
0.0859375
0
CIRCLE
8
0
10
1.70866
20
2.4205763
40
0.0859375
0
CIRCLE
8
0
10
0.17323
20
2.6251489
40
0.0859375
0
CIRCLE
8
0
10
0.40945
20
2.6251489
40
0.0859375
0
CIRCLE
8
0
10
0.64567
20
2.6251489
40
0.0859375
0
CIRCLE
8
0
10
0.88189
20
2.6251489
40
0.0859375
0
CIRCLE
8
0
10
1.11811
20
2.6251489
40
0.0859375
0
CIRCLE
8
0
10
1.35433
20
2.6251489
40
0.0859375
0
CIRCLE
8
0
10
1.59055
20
2.6251489
40
0.0859375
0
CIRCLE
8
0
10
1.82677
20
2.6251489
40
0.0859375
0
CIRCLE
8
0
10
0.29134
20
2.8297214
40
0.0859375
0
CIRCLE
8
0
10
0.52756
20
2.8297214
40
0.0859375
0
CIRCLE
8
0
10
0.76378
20
2.8297214
40
0.0859375
0
CIRCLE
8
0
10
1
20
2.8297214
40
0.0859375
0
CIRCLE
8
0
10
1.23622
20
2.8297214
40
0.0859375
0
CIRCLE
8
0
10
1.47244
20
2.8297214
40
0.0859375
0
CIRCLE
8
0
10
1.70866
20
2.8297214
40
0.0859375
0
ENDSEC
0
EOF
