0
SECTION
2
HEADER
9
$INSUNITS
70
1
0
ENDSEC
0
SECTION
2
TABLES
0
TABLE
2
LAYER
0
ENDTAB
0
ENDSEC
0
SECTION
2
ENTITIES
0
LINE
8
0
10
0
20
0
11
2
21
0
0
LINE
8
0
10
2
20
0
11
2
21
3
0
LINE
8
0
10
2
20
3
11
0
21
3
0
LINE
8
0
10
0
20
3
11
0
21
0
0
CIRCLE
8
0
10
0.125
20
0.2009619
40
0.0825
0
CIRCLE
8
0
10
0.375
20
0.2009619
40
0.0825
0
CIRCLE
8
0
10
0.625
20
0.2009619
40
0.0825
0
CIRCLE
8
0
10
0.875
20
0.2009619
40
0.0825
0
CIRCLE
8
0
10
1.125
20
0.2009619
40
0.0825
0
CIRCLE
8
0
10
1.375
20
0.2009619
40
0.0825
0
CIRCLE
8
0
10
1.625
20
0.2009619
40
0.0825
0
CIRCLE
8
0
10
1.875
20
0.2009619
40
0.0825
0
CIRCLE
8
0
10
0.25
20
0.4174682
40
0.0825
0
CIRCLE
8
0
10
0.5
20
0.4174682
40
0.0825
0
CIRCLE
8
0
10
0.75
20
0.4174682
40
0.0825
0
CIRCLE
8
0
10
1
20
0.4174682
40
0.0825
0
CIRCLE
8
0
10
1.25
20
0.4174682
40
0.0825
0
CIRCLE
8
0
10
1.5
20
0.4174682
40
0.0825
0
CIRCLE
8
0
10
1.75
20
0.4174682
40
0.0825
0
CIRCLE
8
0
10
0.125
20
0.6339746
40
0.0825
0
CIRCLE
8
0
10
0.375
20
0.6339746
40
0.0825
0
CIRCLE
8
0
10
0.625
20
0.6339746
40
0.0825
0
CIRCLE
8
0
10
0.875
20
0.6339746
40
0.0825
0
CIRCLE
8
0
10
1.125
20
0.6339746
40
0.0825
0
CIRCLE
8
0
10
1.375
20
0.6339746
40
0.0825
0
CIRCLE
8
0
10
1.625
20
0.6339746
40
0.0825
0
CIRCLE
8
0
10
1.875
20
0.6339746
40
0.0825
0
CIRCLE
8
0
10
0.25
20
0.8504809
40
0.0825
0
CIRCLE
8
0
10
0.5
20
0.8504809
40
0.0825
0
CIRCLE
8
0
10
0.75
20
0.8504809
40
0.0825
0
CIRCLE
8
0
10
1
20
0.8504809
40
0.0825
0
CIRCLE
8
0
10
1.25
20
0.8504809
40
0.0825
0
CIRCLE
8
0
10
1.5
20
0.8504809
40
0.0825
0
CIRCLE
8
0
10
1.75
20
0.8504809
40
0.0825
0
CIRCLE
8
0
10
0.125
20
1.0669873
40
0.0825
0
CIRCLE
8
0
10
0.375
20
1.0669873
40
0.0825
0
CIRCLE
8
0
10
0.625
20
1.0669873
40
0.0825
0
CIRCLE
8
0
10
0.875
20
1.0669873
40
0.0825
0
CIRCLE
8
0
10
1.125
20
1.0669873
40
0.0825
0
CIRCLE
8
0
10
1.375
20
1.0669873
40
0.0825
0
CIRCLE
8
0
10
1.625
20
1.0669873
40
0.0825
0
CIRCLE
8
0
10
1.875
20
1.0669873
40
0.0825
0
CIRCLE
8
0
10
0.25
20
1.2834936
40
0.0825
0
CIRCLE
8
0
10
0.5
20
1.2834936
40
0.0825
0
CIRCLE
8
0
10
0.75
20
1.2834936
40
0.0825
0
CIRCLE
8
0
10
1
20
1.2834936
40
0.0825
0
CIRCLE
8
0
10
1.25
20
1.2834936
40
0.0825
0
CIRCLE
8
0
10
1.5
20
1.2834936
40
0.0825
0
CIRCLE
8
0
10
1.75
20
1.2834936
40
0.0825
0
CIRCLE
8
0
10
0.125
20
1.5
40
0.0825
0
CIRCLE
8
0
10
0.375
20
1.5
40
0.0825
0
CIRCLE
8
0
10
0.625
20
1.5
40
0.0825
0
CIRCLE
8
0
10
0.875
20
1.5
40
0.0825
0
CIRCLE
8
0
10
1.125
20
1.5
40
0.0825
0
CIRCLE
8
0
10
1.375
20
1.5
40
0.0825
0
CIRCLE
8
0
10
1.625
20
1.5
40
0.0825
0
CIRCLE
8
0
10
1.875
20
1.5
40
0.0825
0
CIRCLE
8
0
10
0.25
20
1.7165064
40
0.0825
0
CIRCLE
8
0
10
0.5
20
1.7165064
40
0.0825
0
CIRCLE
8
0
10
0.75
20
1.7165064
40
0.0825
0
CIRCLE
8
0
10
1
20
1.7165064
40
0.0825
0
CIRCLE
8
0
10
1.25
20
1.7165064
40
0.0825
0
CIRCLE
8
0
10
1.5
20
1.7165064
40
0.0825
0
CIRCLE
8
0
10
1.75
20
1.7165064
40
0.0825
0
CIRCLE
8
0
10
0.125
20
1.9330127
40
0.0825
0
CIRCLE
8
0
10
0.375
20
1.9330127
40
0.0825
0
CIRCLE
8
0
10
0.625
20
1.9330127
40
0.0825
0
CIRCLE
8
0
10
0.875
20
1.9330127
40
0.0825
0
CIRCLE
8
0
10
1.125
20
1.9330127
40
0.0825
0
CIRCLE
8
0
10
1.375
20
1.9330127
40
0.0825
0
CIRCLE
8
0
10
1.625
20
1.9330127
40
0.0825
0
CIRCLE
8
0
10
1.875
20
1.9330127
40
0.0825
0
CIRCLE
8
0
10
0.25
20
2.1495191
40
0.0825
0
CIRCLE
8
0
10
0.5
20
2.1495191
40
0.0825
0
CIRCLE
8
0
10
0.75
20
2.1495191
40
0.0825
0
CIRCLE
8
0
10
1
20
2.1495191
40
0.0825
0
CIRCLE
8
0
10
1.25
20
2.1495191
40
0.0825
0
CIRCLE
8
0
10
1.5
20
2.1495191
40
0.0825
0
CIRCLE
8
0
10
1.75
20
2.1495191
40
0.0825
0
CIRCLE
8
0
10
0.125
20
2.3660254
40
0.0825
0
CIRCLE
8
0
10
0.375
20
2.3660254
40
0.0825
0
CIRCLE
8
0
10
0.625
20
2.3660254
40
0.0825
0
CIRCLE
8
0
10
0.875
20
2.3660254
40
0.0825
0
CIRCLE
8
0
10
1.125
20
2.3660254
40
0.0825
0
CIRCLE
8
0
10
1.375
20
2.3660254
40
0.0825
0
CIRCLE
8
0
10
1.625
20
2.3660254
40
0.0825
0
CIRCLE
8
0
10
1.875
20
2.3660254
40
0.0825
0
CIRCLE
8
0
10
0.25
20
2.5825318
40
0.0825
0
CIRCLE
8
0
10
0.5
20
2.5825318
40
0.0825
0
CIRCLE
8
0
10
0.75
20
2.5825318
40
0.0825
0
CIRCLE
8
0
10
1
20
2.5825318
40
0.0825
0
CIRCLE
8
0
10
1.25
20
2.5825318
40
0.0825
0
CIRCLE
8
0
10
1.5
20
2.5825318
40
0.0825
0
CIRCLE
8
0
10
1.75
20
2.5825318
40
0.0825
0
CIRCLE
8
0
10
0.125
20
2.7990381
40
0.0825
0
CIRCLE
8
0
10
0.375
20
2.7990381
40
0.0825
0
CIRCLE
8
0
10
0.625
20
2.7990381
40
0.0825
0
CIRCLE
8
0
10
0.875
20
2.7990381
40
0.0825
0
CIRCLE
8
0
10
1.125
20
2.7990381
40
0.0825
0
CIRCLE
8
0
10
1.375
20
2.7990381
40
0.0825
0
CIRCLE
8
0
10
1.625
20
2.7990381
40
0.0825
0
CIRCLE
8
0
10
1.875
20
2.7990381
40
0.0825
0
ENDSEC
0
EOF
