0
SECTION
2
HEADER
9
$INSUNITS
70
1
0
ENDSEC
0
SECTION
2
TABLES
0
TABLE
2
LAYER
0
ENDTAB
0
ENDSEC
0
SECTION
2
ENTITIES
0
LINE
8
0
10
0
20
0
11
2
21
0
0
LINE
8
0
10
2
20
0
11
2
21
3
0
LINE
8
0
10
2
20
3
11
0
21
3
0
LINE
8
0
10
0
20
3
11
0
21
0
0
CIRCLE
8
0
10
0.125
20
0.0927087
40
0.075
0
CIRCLE
8
0
10
0.375
20
0.0927087
40
0.075
0
CIRCLE
8
0
10
0.625
20
0.0927087
40
0.075
0
CIRCLE
8
0
10
0.875
20
0.0927087
40
0.075
0
CIRCLE
8
0
10
1.125
20
0.0927087
40
0.075
0
CIRCLE
8
0
10
1.375
20
0.0927087
40
0.075
0
CIRCLE
8
0
10
1.625
20
0.0927087
40
0.075
0
CIRCLE
8
0
10
1.875
20
0.0927087
40
0.075
0
CIRCLE
8
0
10
0.25
20
0.3092151
40
0.075
0
CIRCLE
8
0
10
0.5
20
0.3092151
40
0.075
0
CIRCLE
8
0
10
0.75
20
0.3092151
40
0.075
0
CIRCLE
8
0
10
1
20
0.3092151
40
0.075
0
CIRCLE
8
0
10
1.25
20
0.3092151
40
0.075
0
CIRCLE
8
0
10
1.5
20
0.3092151
40
0.075
0
CIRCLE
8
0
10
1.75
20
0.3092151
40
0.075
0
CIRCLE
8
0
10
0.125
20
0.5257214
40
0.075
0
CIRCLE
8
0
10
0.375
20
0.5257214
40
0.075
0
CIRCLE
8
0
10
0.625
20
0.5257214
40
0.075
0
CIRCLE
8
0
10
0.875
20
0.5257214
40
0.075
0
CIRCLE
8
0
10
1.125
20
0.5257214
40
0.075
0
CIRCLE
8
0
10
1.375
20
0.5257214
40
0.075
0
CIRCLE
8
0
10
1.625
20
0.5257214
40
0.075
0
CIRCLE
8
0
10
1.875
20
0.5257214
40
0.075
0
CIRCLE
8
0
10
0.25
20
0.7422278
40
0.075
0
CIRCLE
8
0
10
0.5
20
0.7422278
40
0.075
0
CIRCLE
8
0
10
0.75
20
0.7422278
40
0.075
0
CIRCLE
8
0
10
1
20
0.7422278
40
0.075
0
CIRCLE
8
0
10
1.25
20
0.7422278
40
0.075
0
CIRCLE
8
0
10
1.5
20
0.7422278
40
0.075
0
CIRCLE
8
0
10
1.75
20
0.7422278
40
0.075
0
CIRCLE
8
0
10
0.125
20
0.9587341
40
0.075
0
CIRCLE
8
0
10
0.375
20
0.9587341
40
0.075
0
CIRCLE
8
0
10
0.625
20
0.9587341
40
0.075
0
CIRCLE
8
0
10
0.875
20
0.9587341
40
0.075
0
CIRCLE
8
0
10
1.125
20
0.9587341
40
0.075
0
CIRCLE
8
0
10
1.375
20
0.9587341
40
0.075
0
CIRCLE
8
0
10
1.625
20
0.9587341
40
0.075
0
CIRCLE
8
0
10
1.875
20
0.9587341
40
0.075
0
CIRCLE
8
0
10
0.25
20
1.1752405
40
0.075
0
CIRCLE
8
0
10
0.5
20
1.1752405
40
0.075
0
CIRCLE
8
0
10
0.75
20
1.1752405
40
0.075
0
CIRCLE
8
0
10
1
20
1.1752405
40
0.075
0
CIRCLE
8
0
10
1.25
20
1.1752405
40
0.075
0
CIRCLE
8
0
10
1.5
20
1.1752405
40
0.075
0
CIRCLE
8
0
10
1.75
20
1.1752405
40
0.075
0
CIRCLE
8
0
10
0.125
20
1.3917468
40
0.075
0
CIRCLE
8
0
10
0.375
20
1.3917468
40
0.075
0
CIRCLE
8
0
10
0.625
20
1.3917468
40
0.075
0
CIRCLE
8
0
10
0.875
20
1.3917468
40
0.075
0
CIRCLE
8
0
10
1.125
20
1.3917468
40
0.075
0
CIRCLE
8
0
10
1.375
20
1.3917468
40
0.075
0
CIRCLE
8
0
10
1.625
20
1.3917468
40
0.075
0
CIRCLE
8
0
10
1.875
20
1.3917468
40
0.075
0
CIRCLE
8
0
10
0.25
20
1.6082532
40
0.075
0
CIRCLE
8
0
10
0.5
20
1.6082532
40
0.075
0
CIRCLE
8
0
10
0.75
20
1.6082532
40
0.075
0
CIRCLE
8
0
10
1
20
1.6082532
40
0.075
0
CIRCLE
8
0
10
1.25
20
1.6082532
40
0.075
0
CIRCLE
8
0
10
1.5
20
1.6082532
40
0.075
0
CIRCLE
8
0
10
1.75
20
1.6082532
40
0.075
0
CIRCLE
8
0
10
0.125
20
1.8247595
40
0.075
0
CIRCLE
8
0
10
0.375
20
1.8247595
40
0.075
0
CIRCLE
8
0
10
0.625
20
1.8247595
40
0.075
0
CIRCLE
8
0
10
0.875
20
1.8247595
40
0.075
0
CIRCLE
8
0
10
1.125
20
1.8247595
40
0.075
0
CIRCLE
8
0
10
1.375
20
1.8247595
40
0.075
0
CIRCLE
8
0
10
1.625
20
1.8247595
40
0.075
0
CIRCLE
8
0
10
1.875
20
1.8247595
40
0.075
0
CIRCLE
8
0
10
0.25
20
2.0412659
40
0.075
0
CIRCLE
8
0
10
0.5
20
2.0412659
40
0.075
0
CIRCLE
8
0
10
0.75
20
2.0412659
40
0.075
0
CIRCLE
8
0
10
1
20
2.0412659
40
0.075
0
CIRCLE
8
0
10
1.25
20
2.0412659
40
0.075
0
CIRCLE
8
0
10
1.5
20
2.0412659
40
0.075
0
CIRCLE
8
0
10
1.75
20
2.0412659
40
0.075
0
CIRCLE
8
0
10
0.125
20
2.2577722
40
0.075
0
CIRCLE
8
0
10
0.375
20
2.2577722
40
0.075
0
CIRCLE
8
0
10
0.625
20
2.2577722
40
0.075
0
CIRCLE
8
0
10
0.875
20
2.2577722
40
0.075
0
CIRCLE
8
0
10
1.125
20
2.2577722
40
0.075
0
CIRCLE
8
0
10
1.375
20
2.2577722
40
0.075
0
CIRCLE
8
0
10
1.625
20
2.2577722
40
0.075
0
CIRCLE
8
0
10
1.875
20
2.2577722
40
0.075
0
CIRCLE
8
0
10
0.25
20
2.4742786
40
0.075
0
CIRCLE
8
0
10
0.5
20
2.4742786
40
0.075
0
CIRCLE
8
0
10
0.75
20
2.4742786
40
0.075
0
CIRCLE
8
0
10
1
20
2.4742786
40
0.075
0
CIRCLE
8
0
10
1.25
20
2.4742786
40
0.075
0
CIRCLE
8
0
10
1.5
20
2.4742786
40
0.075
0
CIRCLE
8
0
10
1.75
20
2.4742786
40
0.075
0
CIRCLE
8
0
10
0.125
20
2.6907849
40
0.075
0
CIRCLE
8
0
10
0.375
20
2.6907849
40
0.075
0
CIRCLE
8
0
10
0.625
20
2.6907849
40
0.075
0
CIRCLE
8
0
10
0.875
20
2.6907849
40
0.075
0
CIRCLE
8
0
10
1.125
20
2.6907849
40
0.075
0
CIRCLE
8
0
10
1.375
20
2.6907849
40
0.075
0
CIRCLE
8
0
10
1.625
20
2.6907849
40
0.075
0
CIRCLE
8
0
10
1.875
20
2.6907849
40
0.075
0
CIRCLE
8
0
10
0.25
20
2.9072913
40
0.075
0
CIRCLE
8
0
10
0.5
20
2.9072913
40
0.075
0
CIRCLE
8
0
10
0.75
20
2.9072913
40
0.075
0
CIRCLE
8
0
10
1
20
2.9072913
40
0.075
0
CIRCLE
8
0
10
1.25
20
2.9072913
40
0.075
0
CIRCLE
8
0
10
1.5
20
2.9072913
40
0.075
0
CIRCLE
8
0
10
1.75
20
2.9072913
40
0.075
0
ENDSEC
0
EOF
