0
SECTION
2
HEADER
9
$INSUNITS
70
1
0
ENDSEC
0
SECTION
2
TABLES
0
TABLE
2
LAYER
0
ENDTAB
0
ENDSEC
0
SECTION
2
ENTITIES
0
LINE
8
0
10
0
20
0
11
6
21
0
0
LINE
8
0
10
6
20
0
11
6
21
6
0
LINE
8
0
10
6
20
6
11
0
21
6
0
LINE
8
0
10
0
20
6
11
0
21
0
0
CIRCLE
8
0
10
0.125
20
0.1854174
40
0.0825
0
CIRCLE
8
0
10
0.375
20
0.1854174
40
0.0825
0
CIRCLE
8
0
10
0.625
20
0.1854174
40
0.0825
0
CIRCLE
8
0
10
0.875
20
0.1854174
40
0.0825
0
CIRCLE
8
0
10
1.125
20
0.1854174
40
0.0825
0
CIRCLE
8
0
10
1.375
20
0.1854174
40
0.0825
0
CIRCLE
8
0
10
1.625
20
0.1854174
40
0.0825
0
CIRCLE
8
0
10
1.875
20
0.1854174
40
0.0825
0
CIRCLE
8
0
10
2.125
20
0.1854174
40
0.0825
0
CIRCLE
8
0
10
2.375
20
0.1854174
40
0.0825
0
CIRCLE
8
0
10
2.625
20
0.1854174
40
0.0825
0
CIRCLE
8
0
10
2.875
20
0.1854174
40
0.0825
0
CIRCLE
8
0
10
3.125
20
0.1854174
40
0.0825
0
CIRCLE
8
0
10
3.375
20
0.1854174
40
0.0825
0
CIRCLE
8
0
10
3.625
20
0.1854174
40
0.0825
0
CIRCLE
8
0
10
3.875
20
0.1854174
40
0.0825
0
CIRCLE
8
0
10
4.125
20
0.1854174
40
0.0825
0
CIRCLE
8
0
10
4.375
20
0.1854174
40
0.0825
0
CIRCLE
8
0
10
4.625
20
0.1854174
40
0.0825
0
CIRCLE
8
0
10
4.875
20
0.1854174
40
0.0825
0
CIRCLE
8
0
10
5.125
20
0.1854174
40
0.0825
0
CIRCLE
8
0
10
5.375
20
0.1854174
40
0.0825
0
CIRCLE
8
0
10
5.625
20
0.1854174
40
0.0825
0
CIRCLE
8
0
10
5.875
20
0.1854174
40
0.0825
0
CIRCLE
8
0
10
0.25
20
0.4019238
40
0.0825
0
CIRCLE
8
0
10
0.5
20
0.4019238
40
0.0825
0
CIRCLE
8
0
10
0.75
20
0.4019238
40
0.0825
0
CIRCLE
8
0
10
1
20
0.4019238
40
0.0825
0
CIRCLE
8
0
10
1.25
20
0.4019238
40
0.0825
0
CIRCLE
8
0
10
1.5
20
0.4019238
40
0.0825
0
CIRCLE
8
0
10
1.75
20
0.4019238
40
0.0825
0
CIRCLE
8
0
10
2
20
0.4019238
40
0.0825
0
CIRCLE
8
0
10
2.25
20
0.4019238
40
0.0825
0
CIRCLE
8
0
10
2.5
20
0.4019238
40
0.0825
0
CIRCLE
8
0
10
2.75
20
0.4019238
40
0.0825
0
CIRCLE
8
0
10
3
20
0.4019238
40
0.0825
0
CIRCLE
8
0
10
3.25
20
0.4019238
40
0.0825
0
CIRCLE
8
0
10
3.5
20
0.4019238
40
0.0825
0
CIRCLE
8
0
10
3.75
20
0.4019238
40
0.0825
0
CIRCLE
8
0
10
4
20
0.4019238
40
0.0825
0
CIRCLE
8
0
10
4.25
20
0.4019238
40
0.0825
0
CIRCLE
8
0
10
4.5
20
0.4019238
40
0.0825
0
CIRCLE
8
0
10
4.75
20
0.4019238
40
0.0825
0
CIRCLE
8
0
10
5
20
0.4019238
40
0.0825
0
CIRCLE
8
0
10
5.25
20
0.4019238
40
0.0825
0
CIRCLE
8
0
10
5.5
20
0.4019238
40
0.0825
0
CIRCLE
8
0
10
5.75
20
0.4019238
40
0.0825
0
CIRCLE
8
0
10
0.125
20
0.6184301
40
0.0825
0
CIRCLE
8
0
10
0.375
20
0.6184301
40
0.0825
0
CIRCLE
8
0
10
0.625
20
0.6184301
40
0.0825
0
CIRCLE
8
0
10
0.875
20
0.6184301
40
0.0825
0
CIRCLE
8
0
10
1.125
20
0.6184301
40
0.0825
0
CIRCLE
8
0
10
1.375
20
0.6184301
40
0.0825
0
CIRCLE
8
0
10
1.625
20
0.6184301
40
0.0825
0
CIRCLE
8
0
10
1.875
20
0.6184301
40
0.0825
0
CIRCLE
8
0
10
2.125
20
0.6184301
40
0.0825
0
CIRCLE
8
0
10
2.375
20
0.6184301
40
0.0825
0
CIRCLE
8
0
10
2.625
20
0.6184301
40
0.0825
0
CIRCLE
8
0
10
2.875
20
0.6184301
40
0.0825
0
CIRCLE
8
0
10
3.125
20
0.6184301
40
0.0825
0
CIRCLE
8
0
10
3.375
20
0.6184301
40
0.0825
0
CIRCLE
8
0
10
3.625
20
0.6184301
40
0.0825
0
CIRCLE
8
0
10
3.875
20
0.6184301
40
0.0825
0
CIRCLE
8
0
10
4.125
20
0.6184301
40
0.0825
0
CIRCLE
8
0
10
4.375
20
0.6184301
40
0.0825
0
CIRCLE
8
0
10
4.625
20
0.6184301
40
0.0825
0
CIRCLE
8
0
10
4.875
20
0.6184301
40
0.0825
0
CIRCLE
8
0
10
5.125
20
0.6184301
40
0.0825
0
CIRCLE
8
0
10
5.375
20
0.6184301
40
0.0825
0
CIRCLE
8
0
10
5.625
20
0.6184301
40
0.0825
0
CIRCLE
8
0
10
5.875
20
0.6184301
40
0.0825
0
CIRCLE
8
0
10
0.25
20
0.8349365
40
0.0825
0
CIRCLE
8
0
10
0.5
20
0.8349365
40
0.0825
0
CIRCLE
8
0
10
0.75
20
0.8349365
40
0.0825
0
CIRCLE
8
0
10
1
20
0.8349365
40
0.0825
0
CIRCLE
8
0
10
1.25
20
0.8349365
40
0.0825
0
CIRCLE
8
0
10
1.5
20
0.8349365
40
0.0825
0
CIRCLE
8
0
10
1.75
20
0.8349365
40
0.0825
0
CIRCLE
8
0
10
2
20
0.8349365
40
0.0825
0
CIRCLE
8
0
10
2.25
20
0.8349365
40
0.0825
0
CIRCLE
8
0
10
2.5
20
0.8349365
40
0.0825
0
CIRCLE
8
0
10
2.75
20
0.8349365
40
0.0825
0
CIRCLE
8
0
10
3
20
0.8349365
40
0.0825
0
CIRCLE
8
0
10
3.25
20
0.8349365
40
0.0825
0
CIRCLE
8
0
10
3.5
20
0.8349365
40
0.0825
0
CIRCLE
8
0
10
3.75
20
0.8349365
40
0.0825
0
CIRCLE
8
0
10
4
20
0.8349365
40
0.0825
0
CIRCLE
8
0
10
4.25
20
0.8349365
40
0.0825
0
CIRCLE
8
0
10
4.5
20
0.8349365
40
0.0825
0
CIRCLE
8
0
10
4.75
20
0.8349365
40
0.0825
0
CIRCLE
8
0
10
5
20
0.8349365
40
0.0825
0
CIRCLE
8
0
10
5.25
20
0.8349365
40
0.0825
0
CIRCLE
8
0
10
5.5
20
0.8349365
40
0.0825
0
CIRCLE
8
0
10
5.75
20
0.8349365
40
0.0825
0
CIRCLE
8
0
10
0.125
20
1.0514428
40
0.0825
0
CIRCLE
8
0
10
0.375
20
1.0514428
40
0.0825
0
CIRCLE
8
0
10
0.625
20
1.0514428
40
0.0825
0
CIRCLE
8
0
10
0.875
20
1.0514428
40
0.0825
0
CIRCLE
8
0
10
1.125
20
1.0514428
40
0.0825
0
CIRCLE
8
0
10
1.375
20
1.0514428
40
0.0825
0
CIRCLE
8
0
10
1.625
20
1.0514428
40
0.0825
0
CIRCLE
8
0
10
1.875
20
1.0514428
40
0.0825
0
CIRCLE
8
0
10
2.125
20
1.0514428
40
0.0825
0
CIRCLE
8
0
10
2.375
20
1.0514428
40
0.0825
0
CIRCLE
8
0
10
2.625
20
1.0514428
40
0.0825
0
CIRCLE
8
0
10
2.875
20
1.0514428
40
0.0825
0
CIRCLE
8
0
10
3.125
20
1.0514428
40
0.0825
0
CIRCLE
8
0
10
3.375
20
1.0514428
40
0.0825
0
CIRCLE
8
0
10
3.625
20
1.0514428
40
0.0825
0
CIRCLE
8
0
10
3.875
20
1.0514428
40
0.0825
0
CIRCLE
8
0
10
4.125
20
1.0514428
40
0.0825
0
CIRCLE
8
0
10
4.375
20
1.0514428
40
0.0825
0
CIRCLE
8
0
10
4.625
20
1.0514428
40
0.0825
0
CIRCLE
8
0
10
4.875
20
1.0514428
40
0.0825
0
CIRCLE
8
0
10
5.125
20
1.0514428
40
0.0825
0
CIRCLE
8
0
10
5.375
20
1.0514428
40
0.0825
0
CIRCLE
8
0
10
5.625
20
1.0514428
40
0.0825
0
CIRCLE
8
0
10
5.875
20
1.0514428
40
0.0825
0
CIRCLE
8
0
10
0.25
20
1.2679492
40
0.0825
0
CIRCLE
8
0
10
0.5
20
1.2679492
40
0.0825
0
CIRCLE
8
0
10
0.75
20
1.2679492
40
0.0825
0
CIRCLE
8
0
10
1
20
1.2679492
40
0.0825
0
CIRCLE
8
0
10
1.25
20
1.2679492
40
0.0825
0
CIRCLE
8
0
10
1.5
20
1.2679492
40
0.0825
0
CIRCLE
8
0
10
1.75
20
1.2679492
40
0.0825
0
CIRCLE
8
0
10
2
20
1.2679492
40
0.0825
0
CIRCLE
8
0
10
2.25
20
1.2679492
40
0.0825
0
CIRCLE
8
0
10
2.5
20
1.2679492
40
0.0825
0
CIRCLE
8
0
10
2.75
20
1.2679492
40
0.0825
0
CIRCLE
8
0
10
3
20
1.2679492
40
0.0825
0
CIRCLE
8
0
10
3.25
20
1.2679492
40
0.0825
0
CIRCLE
8
0
10
3.5
20
1.2679492
40
0.0825
0
CIRCLE
8
0
10
3.75
20
1.2679492
40
0.0825
0
CIRCLE
8
0
10
4
20
1.2679492
40
0.0825
0
CIRCLE
8
0
10
4.25
20
1.2679492
40
0.0825
0
CIRCLE
8
0
10
4.5
20
1.2679492
40
0.0825
0
CIRCLE
8
0
10
4.75
20
1.2679492
40
0.0825
0
CIRCLE
8
0
10
5
20
1.2679492
40
0.0825
0
CIRCLE
8
0
10
5.25
20
1.2679492
40
0.0825
0
CIRCLE
8
0
10
5.5
20
1.2679492
40
0.0825
0
CIRCLE
8
0
10
5.75
20
1.2679492
40
0.0825
0
CIRCLE
8
0
10
0.125
20
1.4844555
40
0.0825
0
CIRCLE
8
0
10
0.375
20
1.4844555
40
0.0825
0
CIRCLE
8
0
10
0.625
20
1.4844555
40
0.0825
0
CIRCLE
8
0
10
0.875
20
1.4844555
40
0.0825
0
CIRCLE
8
0
10
1.125
20
1.4844555
40
0.0825
0
CIRCLE
8
0
10
1.375
20
1.4844555
40
0.0825
0
CIRCLE
8
0
10
1.625
20
1.4844555
40
0.0825
0
CIRCLE
8
0
10
1.875
20
1.4844555
40
0.0825
0
CIRCLE
8
0
10
2.125
20
1.4844555
40
0.0825
0
CIRCLE
8
0
10
2.375
20
1.4844555
40
0.0825
0
CIRCLE
8
0
10
2.625
20
1.4844555
40
0.0825
0
CIRCLE
8
0
10
2.875
20
1.4844555
40
0.0825
0
CIRCLE
8
0
10
3.125
20
1.4844555
40
0.0825
0
CIRCLE
8
0
10
3.375
20
1.4844555
40
0.0825
0
CIRCLE
8
0
10
3.625
20
1.4844555
40
0.0825
0
CIRCLE
8
0
10
3.875
20
1.4844555
40
0.0825
0
CIRCLE
8
0
10
4.125
20
1.4844555
40
0.0825
0
CIRCLE
8
0
10
4.375
20
1.4844555
40
0.0825
0
CIRCLE
8
0
10
4.625
20
1.4844555
40
0.0825
0
CIRCLE
8
0
10
4.875
20
1.4844555
40
0.0825
0
CIRCLE
8
0
10
5.125
20
1.4844555
40
0.0825
0
CIRCLE
8
0
10
5.375
20
1.4844555
40
0.0825
0
CIRCLE
8
0
10
5.625
20
1.4844555
40
0.0825
0
CIRCLE
8
0
10
5.875
20
1.4844555
40
0.0825
0
CIRCLE
8
0
10
0.25
20
1.7009619
40
0.0825
0
CIRCLE
8
0
10
0.5
20
1.7009619
40
0.0825
0
CIRCLE
8
0
10
0.75
20
1.7009619
40
0.0825
0
CIRCLE
8
0
10
1
20
1.7009619
40
0.0825
0
CIRCLE
8
0
10
1.25
20
1.7009619
40
0.0825
0
CIRCLE
8
0
10
1.5
20
1.7009619
40
0.0825
0
CIRCLE
8
0
10
1.75
20
1.7009619
40
0.0825
0
CIRCLE
8
0
10
2
20
1.7009619
40
0.0825
0
CIRCLE
8
0
10
2.25
20
1.7009619
40
0.0825
0
CIRCLE
8
0
10
2.5
20
1.7009619
40
0.0825
0
CIRCLE
8
0
10
2.75
20
1.7009619
40
0.0825
0
CIRCLE
8
0
10
3
20
1.7009619
40
0.0825
0
CIRCLE
8
0
10
3.25
20
1.7009619
40
0.0825
0
CIRCLE
8
0
10
3.5
20
1.7009619
40
0.0825
0
CIRCLE
8
0
10
3.75
20
1.7009619
40
0.0825
0
CIRCLE
8
0
10
4
20
1.7009619
40
0.0825
0
CIRCLE
8
0
10
4.25
20
1.7009619
40
0.0825
0
CIRCLE
8
0
10
4.5
20
1.7009619
40
0.0825
0
CIRCLE
8
0
10
4.75
20
1.7009619
40
0.0825
0
CIRCLE
8
0
10
5
20
1.7009619
40
0.0825
0
CIRCLE
8
0
10
5.25
20
1.7009619
40
0.0825
0
CIRCLE
8
0
10
5.5
20
1.7009619
40
0.0825
0
CIRCLE
8
0
10
5.75
20
1.7009619
40
0.0825
0
CIRCLE
8
0
10
0.125
20
1.9174682
40
0.0825
0
CIRCLE
8
0
10
0.375
20
1.9174682
40
0.0825
0
CIRCLE
8
0
10
0.625
20
1.9174682
40
0.0825
0
CIRCLE
8
0
10
0.875
20
1.9174682
40
0.0825
0
CIRCLE
8
0
10
1.125
20
1.9174682
40
0.0825
0
CIRCLE
8
0
10
1.375
20
1.9174682
40
0.0825
0
CIRCLE
8
0
10
1.625
20
1.9174682
40
0.0825
0
CIRCLE
8
0
10
1.875
20
1.9174682
40
0.0825
0
CIRCLE
8
0
10
2.125
20
1.9174682
40
0.0825
0
CIRCLE
8
0
10
2.375
20
1.9174682
40
0.0825
0
CIRCLE
8
0
10
2.625
20
1.9174682
40
0.0825
0
CIRCLE
8
0
10
2.875
20
1.9174682
40
0.0825
0
CIRCLE
8
0
10
3.125
20
1.9174682
40
0.0825
0
CIRCLE
8
0
10
3.375
20
1.9174682
40
0.0825
0
CIRCLE
8
0
10
3.625
20
1.9174682
40
0.0825
0
CIRCLE
8
0
10
3.875
20
1.9174682
40
0.0825
0
CIRCLE
8
0
10
4.125
20
1.9174682
40
0.0825
0
CIRCLE
8
0
10
4.375
20
1.9174682
40
0.0825
0
CIRCLE
8
0
10
4.625
20
1.9174682
40
0.0825
0
CIRCLE
8
0
10
4.875
20
1.9174682
40
0.0825
0
CIRCLE
8
0
10
5.125
20
1.9174682
40
0.0825
0
CIRCLE
8
0
10
5.375
20
1.9174682
40
0.0825
0
CIRCLE
8
0
10
5.625
20
1.9174682
40
0.0825
0
CIRCLE
8
0
10
5.875
20
1.9174682
40
0.0825
0
CIRCLE
8
0
10
0.25
20
2.1339746
40
0.0825
0
CIRCLE
8
0
10
0.5
20
2.1339746
40
0.0825
0
CIRCLE
8
0
10
0.75
20
2.1339746
40
0.0825
0
CIRCLE
8
0
10
1
20
2.1339746
40
0.0825
0
CIRCLE
8
0
10
1.25
20
2.1339746
40
0.0825
0
CIRCLE
8
0
10
1.5
20
2.1339746
40
0.0825
0
CIRCLE
8
0
10
1.75
20
2.1339746
40
0.0825
0
CIRCLE
8
0
10
2
20
2.1339746
40
0.0825
0
CIRCLE
8
0
10
2.25
20
2.1339746
40
0.0825
0
CIRCLE
8
0
10
2.5
20
2.1339746
40
0.0825
0
CIRCLE
8
0
10
2.75
20
2.1339746
40
0.0825
0
CIRCLE
8
0
10
3
20
2.1339746
40
0.0825
0
CIRCLE
8
0
10
3.25
20
2.1339746
40
0.0825
0
CIRCLE
8
0
10
3.5
20
2.1339746
40
0.0825
0
CIRCLE
8
0
10
3.75
20
2.1339746
40
0.0825
0
CIRCLE
8
0
10
4
20
2.1339746
40
0.0825
0
CIRCLE
8
0
10
4.25
20
2.1339746
40
0.0825
0
CIRCLE
8
0
10
4.5
20
2.1339746
40
0.0825
0
CIRCLE
8
0
10
4.75
20
2.1339746
40
0.0825
0
CIRCLE
8
0
10
5
20
2.1339746
40
0.0825
0
CIRCLE
8
0
10
5.25
20
2.1339746
40
0.0825
0
CIRCLE
8
0
10
5.5
20
2.1339746
40
0.0825
0
CIRCLE
8
0
10
5.75
20
2.1339746
40
0.0825
0
CIRCLE
8
0
10
0.125
20
2.3504809
40
0.0825
0
CIRCLE
8
0
10
0.375
20
2.3504809
40
0.0825
0
CIRCLE
8
0
10
0.625
20
2.3504809
40
0.0825
0
CIRCLE
8
0
10
0.875
20
2.3504809
40
0.0825
0
CIRCLE
8
0
10
1.125
20
2.3504809
40
0.0825
0
CIRCLE
8
0
10
1.375
20
2.3504809
40
0.0825
0
CIRCLE
8
0
10
1.625
20
2.3504809
40
0.0825
0
CIRCLE
8
0
10
1.875
20
2.3504809
40
0.0825
0
CIRCLE
8
0
10
2.125
20
2.3504809
40
0.0825
0
CIRCLE
8
0
10
2.375
20
2.3504809
40
0.0825
0
CIRCLE
8
0
10
2.625
20
2.3504809
40
0.0825
0
CIRCLE
8
0
10
2.875
20
2.3504809
40
0.0825
0
CIRCLE
8
0
10
3.125
20
2.3504809
40
0.0825
0
CIRCLE
8
0
10
3.375
20
2.3504809
40
0.0825
0
CIRCLE
8
0
10
3.625
20
2.3504809
40
0.0825
0
CIRCLE
8
0
10
3.875
20
2.3504809
40
0.0825
0
CIRCLE
8
0
10
4.125
20
2.3504809
40
0.0825
0
CIRCLE
8
0
10
4.375
20
2.3504809
40
0.0825
0
CIRCLE
8
0
10
4.625
20
2.3504809
40
0.0825
0
CIRCLE
8
0
10
4.875
20
2.3504809
40
0.0825
0
CIRCLE
8
0
10
5.125
20
2.3504809
40
0.0825
0
CIRCLE
8
0
10
5.375
20
2.3504809
40
0.0825
0
CIRCLE
8
0
10
5.625
20
2.3504809
40
0.0825
0
CIRCLE
8
0
10
5.875
20
2.3504809
40
0.0825
0
CIRCLE
8
0
10
0.25
20
2.5669873
40
0.0825
0
CIRCLE
8
0
10
0.5
20
2.5669873
40
0.0825
0
CIRCLE
8
0
10
0.75
20
2.5669873
40
0.0825
0
CIRCLE
8
0
10
1
20
2.5669873
40
0.0825
0
CIRCLE
8
0
10
1.25
20
2.5669873
40
0.0825
0
CIRCLE
8
0
10
1.5
20
2.5669873
40
0.0825
0
CIRCLE
8
0
10
1.75
20
2.5669873
40
0.0825
0
CIRCLE
8
0
10
2
20
2.5669873
40
0.0825
0
CIRCLE
8
0
10
2.25
20
2.5669873
40
0.0825
0
CIRCLE
8
0
10
2.5
20
2.5669873
40
0.0825
0
CIRCLE
8
0
10
2.75
20
2.5669873
40
0.0825
0
CIRCLE
8
0
10
3
20
2.5669873
40
0.0825
0
CIRCLE
8
0
10
3.25
20
2.5669873
40
0.0825
0
CIRCLE
8
0
10
3.5
20
2.5669873
40
0.0825
0
CIRCLE
8
0
10
3.75
20
2.5669873
40
0.0825
0
CIRCLE
8
0
10
4
20
2.5669873
40
0.0825
0
CIRCLE
8
0
10
4.25
20
2.5669873
40
0.0825
0
CIRCLE
8
0
10
4.5
20
2.5669873
40
0.0825
0
CIRCLE
8
0
10
4.75
20
2.5669873
40
0.0825
0
CIRCLE
8
0
10
5
20
2.5669873
40
0.0825
0
CIRCLE
8
0
10
5.25
20
2.5669873
40
0.0825
0
CIRCLE
8
0
10
5.5
20
2.5669873
40
0.0825
0
CIRCLE
8
0
10
5.75
20
2.5669873
40
0.0825
0
CIRCLE
8
0
10
0.125
20
2.7834936
40
0.0825
0
CIRCLE
8
0
10
0.375
20
2.7834936
40
0.0825
0
CIRCLE
8
0
10
0.625
20
2.7834936
40
0.0825
0
CIRCLE
8
0
10
0.875
20
2.7834936
40
0.0825
0
CIRCLE
8
0
10
1.125
20
2.7834936
40
0.0825
0
CIRCLE
8
0
10
1.375
20
2.7834936
40
0.0825
0
CIRCLE
8
0
10
1.625
20
2.7834936
40
0.0825
0
CIRCLE
8
0
10
1.875
20
2.7834936
40
0.0825
0
CIRCLE
8
0
10
2.125
20
2.7834936
40
0.0825
0
CIRCLE
8
0
10
2.375
20
2.7834936
40
0.0825
0
CIRCLE
8
0
10
2.625
20
2.7834936
40
0.0825
0
CIRCLE
8
0
10
2.875
20
2.7834936
40
0.0825
0
CIRCLE
8
0
10
3.125
20
2.7834936
40
0.0825
0
CIRCLE
8
0
10
3.375
20
2.7834936
40
0.0825
0
CIRCLE
8
0
10
3.625
20
2.7834936
40
0.0825
0
CIRCLE
8
0
10
3.875
20
2.7834936
40
0.0825
0
CIRCLE
8
0
10
4.125
20
2.7834936
40
0.0825
0
CIRCLE
8
0
10
4.375
20
2.7834936
40
0.0825
0
CIRCLE
8
0
10
4.625
20
2.7834936
40
0.0825
0
CIRCLE
8
0
10
4.875
20
2.7834936
40
0.0825
0
CIRCLE
8
0
10
5.125
20
2.7834936
40
0.0825
0
CIRCLE
8
0
10
5.375
20
2.7834936
40
0.0825
0
CIRCLE
8
0
10
5.625
20
2.7834936
40
0.0825
0
CIRCLE
8
0
10
5.875
20
2.7834936
40
0.0825
0
CIRCLE
8
0
10
0.25
20
3
40
0.0825
0
CIRCLE
8
0
10
0.5
20
3
40
0.0825
0
CIRCLE
8
0
10
0.75
20
3
40
0.0825
0
CIRCLE
8
0
10
1
20
3
40
0.0825
0
CIRCLE
8
0
10
1.25
20
3
40
0.0825
0
CIRCLE
8
0
10
1.5
20
3
40
0.0825
0
CIRCLE
8
0
10
1.75
20
3
40
0.0825
0
CIRCLE
8
0
10
2
20
3
40
0.0825
0
CIRCLE
8
0
10
2.25
20
3
40
0.0825
0
CIRCLE
8
0
10
2.5
20
3
40
0.0825
0
CIRCLE
8
0
10
2.75
20
3
40
0.0825
0
CIRCLE
8
0
10
3
20
3
40
0.0825
0
CIRCLE
8
0
10
3.25
20
3
40
0.0825
0
CIRCLE
8
0
10
3.5
20
3
40
0.0825
0
CIRCLE
8
0
10
3.75
20
3
40
0.0825
0
CIRCLE
8
0
10
4
20
3
40
0.0825
0
CIRCLE
8
0
10
4.25
20
3
40
0.0825
0
CIRCLE
8
0
10
4.5
20
3
40
0.0825
0
CIRCLE
8
0
10
4.75
20
3
40
0.0825
0
CIRCLE
8
0
10
5
20
3
40
0.0825
0
CIRCLE
8
0
10
5.25
20
3
40
0.0825
0
CIRCLE
8
0
10
5.5
20
3
40
0.0825
0
CIRCLE
8
0
10
5.75
20
3
40
0.0825
0
CIRCLE
8
0
10
0.125
20
3.2165064
40
0.0825
0
CIRCLE
8
0
10
0.375
20
3.2165064
40
0.0825
0
CIRCLE
8
0
10
0.625
20
3.2165064
40
0.0825
0
CIRCLE
8
0
10
0.875
20
3.2165064
40
0.0825
0
CIRCLE
8
0
10
1.125
20
3.2165064
40
0.0825
0
CIRCLE
8
0
10
1.375
20
3.2165064
40
0.0825
0
CIRCLE
8
0
10
1.625
20
3.2165064
40
0.0825
0
CIRCLE
8
0
10
1.875
20
3.2165064
40
0.0825
0
CIRCLE
8
0
10
2.125
20
3.2165064
40
0.0825
0
CIRCLE
8
0
10
2.375
20
3.2165064
40
0.0825
0
CIRCLE
8
0
10
2.625
20
3.2165064
40
0.0825
0
CIRCLE
8
0
10
2.875
20
3.2165064
40
0.0825
0
CIRCLE
8
0
10
3.125
20
3.2165064
40
0.0825
0
CIRCLE
8
0
10
3.375
20
3.2165064
40
0.0825
0
CIRCLE
8
0
10
3.625
20
3.2165064
40
0.0825
0
CIRCLE
8
0
10
3.875
20
3.2165064
40
0.0825
0
CIRCLE
8
0
10
4.125
20
3.2165064
40
0.0825
0
CIRCLE
8
0
10
4.375
20
3.2165064
40
0.0825
0
CIRCLE
8
0
10
4.625
20
3.2165064
40
0.0825
0
CIRCLE
8
0
10
4.875
20
3.2165064
40
0.0825
0
CIRCLE
8
0
10
5.125
20
3.2165064
40
0.0825
0
CIRCLE
8
0
10
5.375
20
3.2165064
40
0.0825
0
CIRCLE
8
0
10
5.625
20
3.2165064
40
0.0825
0
CIRCLE
8
0
10
5.875
20
3.2165064
40
0.0825
0
CIRCLE
8
0
10
0.25
20
3.4330127
40
0.0825
0
CIRCLE
8
0
10
0.5
20
3.4330127
40
0.0825
0
CIRCLE
8
0
10
0.75
20
3.4330127
40
0.0825
0
CIRCLE
8
0
10
1
20
3.4330127
40
0.0825
0
CIRCLE
8
0
10
1.25
20
3.4330127
40
0.0825
0
CIRCLE
8
0
10
1.5
20
3.4330127
40
0.0825
0
CIRCLE
8
0
10
1.75
20
3.4330127
40
0.0825
0
CIRCLE
8
0
10
2
20
3.4330127
40
0.0825
0
CIRCLE
8
0
10
2.25
20
3.4330127
40
0.0825
0
CIRCLE
8
0
10
2.5
20
3.4330127
40
0.0825
0
CIRCLE
8
0
10
2.75
20
3.4330127
40
0.0825
0
CIRCLE
8
0
10
3
20
3.4330127
40
0.0825
0
CIRCLE
8
0
10
3.25
20
3.4330127
40
0.0825
0
CIRCLE
8
0
10
3.5
20
3.4330127
40
0.0825
0
CIRCLE
8
0
10
3.75
20
3.4330127
40
0.0825
0
CIRCLE
8
0
10
4
20
3.4330127
40
0.0825
0
CIRCLE
8
0
10
4.25
20
3.4330127
40
0.0825
0
CIRCLE
8
0
10
4.5
20
3.4330127
40
0.0825
0
CIRCLE
8
0
10
4.75
20
3.4330127
40
0.0825
0
CIRCLE
8
0
10
5
20
3.4330127
40
0.0825
0
CIRCLE
8
0
10
5.25
20
3.4330127
40
0.0825
0
CIRCLE
8
0
10
5.5
20
3.4330127
40
0.0825
0
CIRCLE
8
0
10
5.75
20
3.4330127
40
0.0825
0
CIRCLE
8
0
10
0.125
20
3.6495191
40
0.0825
0
CIRCLE
8
0
10
0.375
20
3.6495191
40
0.0825
0
CIRCLE
8
0
10
0.625
20
3.6495191
40
0.0825
0
CIRCLE
8
0
10
0.875
20
3.6495191
40
0.0825
0
CIRCLE
8
0
10
1.125
20
3.6495191
40
0.0825
0
CIRCLE
8
0
10
1.375
20
3.6495191
40
0.0825
0
CIRCLE
8
0
10
1.625
20
3.6495191
40
0.0825
0
CIRCLE
8
0
10
1.875
20
3.6495191
40
0.0825
0
CIRCLE
8
0
10
2.125
20
3.6495191
40
0.0825
0
CIRCLE
8
0
10
2.375
20
3.6495191
40
0.0825
0
CIRCLE
8
0
10
2.625
20
3.6495191
40
0.0825
0
CIRCLE
8
0
10
2.875
20
3.6495191
40
0.0825
0
CIRCLE
8
0
10
3.125
20
3.6495191
40
0.0825
0
CIRCLE
8
0
10
3.375
20
3.6495191
40
0.0825
0
CIRCLE
8
0
10
3.625
20
3.6495191
40
0.0825
0
CIRCLE
8
0
10
3.875
20
3.6495191
40
0.0825
0
CIRCLE
8
0
10
4.125
20
3.6495191
40
0.0825
0
CIRCLE
8
0
10
4.375
20
3.6495191
40
0.0825
0
CIRCLE
8
0
10
4.625
20
3.6495191
40
0.0825
0
CIRCLE
8
0
10
4.875
20
3.6495191
40
0.0825
0
CIRCLE
8
0
10
5.125
20
3.6495191
40
0.0825
0
CIRCLE
8
0
10
5.375
20
3.6495191
40
0.0825
0
CIRCLE
8
0
10
5.625
20
3.6495191
40
0.0825
0
CIRCLE
8
0
10
5.875
20
3.6495191
40
0.0825
0
CIRCLE
8
0
10
0.25
20
3.8660254
40
0.0825
0
CIRCLE
8
0
10
0.5
20
3.8660254
40
0.0825
0
CIRCLE
8
0
10
0.75
20
3.8660254
40
0.0825
0
CIRCLE
8
0
10
1
20
3.8660254
40
0.0825
0
CIRCLE
8
0
10
1.25
20
3.8660254
40
0.0825
0
CIRCLE
8
0
10
1.5
20
3.8660254
40
0.0825
0
CIRCLE
8
0
10
1.75
20
3.8660254
40
0.0825
0
CIRCLE
8
0
10
2
20
3.8660254
40
0.0825
0
CIRCLE
8
0
10
2.25
20
3.8660254
40
0.0825
0
CIRCLE
8
0
10
2.5
20
3.8660254
40
0.0825
0
CIRCLE
8
0
10
2.75
20
3.8660254
40
0.0825
0
CIRCLE
8
0
10
3
20
3.8660254
40
0.0825
0
CIRCLE
8
0
10
3.25
20
3.8660254
40
0.0825
0
CIRCLE
8
0
10
3.5
20
3.8660254
40
0.0825
0
CIRCLE
8
0
10
3.75
20
3.8660254
40
0.0825
0
CIRCLE
8
0
10
4
20
3.8660254
40
0.0825
0
CIRCLE
8
0
10
4.25
20
3.8660254
40
0.0825
0
CIRCLE
8
0
10
4.5
20
3.8660254
40
0.0825
0
CIRCLE
8
0
10
4.75
20
3.8660254
40
0.0825
0
CIRCLE
8
0
10
5
20
3.8660254
40
0.0825
0
CIRCLE
8
0
10
5.25
20
3.8660254
40
0.0825
0
CIRCLE
8
0
10
5.5
20
3.8660254
40
0.0825
0
CIRCLE
8
0
10
5.75
20
3.8660254
40
0.0825
0
CIRCLE
8
0
10
0.125
20
4.0825318
40
0.0825
0
CIRCLE
8
0
10
0.375
20
4.0825318
40
0.0825
0
CIRCLE
8
0
10
0.625
20
4.0825318
40
0.0825
0
CIRCLE
8
0
10
0.875
20
4.0825318
40
0.0825
0
CIRCLE
8
0
10
1.125
20
4.0825318
40
0.0825
0
CIRCLE
8
0
10
1.375
20
4.0825318
40
0.0825
0
CIRCLE
8
0
10
1.625
20
4.0825318
40
0.0825
0
CIRCLE
8
0
10
1.875
20
4.0825318
40
0.0825
0
CIRCLE
8
0
10
2.125
20
4.0825318
40
0.0825
0
CIRCLE
8
0
10
2.375
20
4.0825318
40
0.0825
0
CIRCLE
8
0
10
2.625
20
4.0825318
40
0.0825
0
CIRCLE
8
0
10
2.875
20
4.0825318
40
0.0825
0
CIRCLE
8
0
10
3.125
20
4.0825318
40
0.0825
0
CIRCLE
8
0
10
3.375
20
4.0825318
40
0.0825
0
CIRCLE
8
0
10
3.625
20
4.0825318
40
0.0825
0
CIRCLE
8
0
10
3.875
20
4.0825318
40
0.0825
0
CIRCLE
8
0
10
4.125
20
4.0825318
40
0.0825
0
CIRCLE
8
0
10
4.375
20
4.0825318
40
0.0825
0
CIRCLE
8
0
10
4.625
20
4.0825318
40
0.0825
0
CIRCLE
8
0
10
4.875
20
4.0825318
40
0.0825
0
CIRCLE
8
0
10
5.125
20
4.0825318
40
0.0825
0
CIRCLE
8
0
10
5.375
20
4.0825318
40
0.0825
0
CIRCLE
8
0
10
5.625
20
4.0825318
40
0.0825
0
CIRCLE
8
0
10
5.875
20
4.0825318
40
0.0825
0
CIRCLE
8
0
10
0.25
20
4.2990381
40
0.0825
0
CIRCLE
8
0
10
0.5
20
4.2990381
40
0.0825
0
CIRCLE
8
0
10
0.75
20
4.2990381
40
0.0825
0
CIRCLE
8
0
10
1
20
4.2990381
40
0.0825
0
CIRCLE
8
0
10
1.25
20
4.2990381
40
0.0825
0
CIRCLE
8
0
10
1.5
20
4.2990381
40
0.0825
0
CIRCLE
8
0
10
1.75
20
4.2990381
40
0.0825
0
CIRCLE
8
0
10
2
20
4.2990381
40
0.0825
0
CIRCLE
8
0
10
2.25
20
4.2990381
40
0.0825
0
CIRCLE
8
0
10
2.5
20
4.2990381
40
0.0825
0
CIRCLE
8
0
10
2.75
20
4.2990381
40
0.0825
0
CIRCLE
8
0
10
3
20
4.2990381
40
0.0825
0
CIRCLE
8
0
10
3.25
20
4.2990381
40
0.0825
0
CIRCLE
8
0
10
3.5
20
4.2990381
40
0.0825
0
CIRCLE
8
0
10
3.75
20
4.2990381
40
0.0825
0
CIRCLE
8
0
10
4
20
4.2990381
40
0.0825
0
CIRCLE
8
0
10
4.25
20
4.2990381
40
0.0825
0
CIRCLE
8
0
10
4.5
20
4.2990381
40
0.0825
0
CIRCLE
8
0
10
4.75
20
4.2990381
40
0.0825
0
CIRCLE
8
0
10
5
20
4.2990381
40
0.0825
0
CIRCLE
8
0
10
5.25
20
4.2990381
40
0.0825
0
CIRCLE
8
0
10
5.5
20
4.2990381
40
0.0825
0
CIRCLE
8
0
10
5.75
20
4.2990381
40
0.0825
0
CIRCLE
8
0
10
0.125
20
4.5155445
40
0.0825
0
CIRCLE
8
0
10
0.375
20
4.5155445
40
0.0825
0
CIRCLE
8
0
10
0.625
20
4.5155445
40
0.0825
0
CIRCLE
8
0
10
0.875
20
4.5155445
40
0.0825
0
CIRCLE
8
0
10
1.125
20
4.5155445
40
0.0825
0
CIRCLE
8
0
10
1.375
20
4.5155445
40
0.0825
0
CIRCLE
8
0
10
1.625
20
4.5155445
40
0.0825
0
CIRCLE
8
0
10
1.875
20
4.5155445
40
0.0825
0
CIRCLE
8
0
10
2.125
20
4.5155445
40
0.0825
0
CIRCLE
8
0
10
2.375
20
4.5155445
40
0.0825
0
CIRCLE
8
0
10
2.625
20
4.5155445
40
0.0825
0
CIRCLE
8
0
10
2.875
20
4.5155445
40
0.0825
0
CIRCLE
8
0
10
3.125
20
4.5155445
40
0.0825
0
CIRCLE
8
0
10
3.375
20
4.5155445
40
0.0825
0
CIRCLE
8
0
10
3.625
20
4.5155445
40
0.0825
0
CIRCLE
8
0
10
3.875
20
4.5155445
40
0.0825
0
CIRCLE
8
0
10
4.125
20
4.5155445
40
0.0825
0
CIRCLE
8
0
10
4.375
20
4.5155445
40
0.0825
0
CIRCLE
8
0
10
4.625
20
4.5155445
40
0.0825
0
CIRCLE
8
0
10
4.875
20
4.5155445
40
0.0825
0
CIRCLE
8
0
10
5.125
20
4.5155445
40
0.0825
0
CIRCLE
8
0
10
5.375
20
4.5155445
40
0.0825
0
CIRCLE
8
0
10
5.625
20
4.5155445
40
0.0825
0
CIRCLE
8
0
10
5.875
20
4.5155445
40
0.0825
0
CIRCLE
8
0
10
0.25
20
4.7320508
40
0.0825
0
CIRCLE
8
0
10
0.5
20
4.7320508
40
0.0825
0
CIRCLE
8
0
10
0.75
20
4.7320508
40
0.0825
0
CIRCLE
8
0
10
1
20
4.7320508
40
0.0825
0
CIRCLE
8
0
10
1.25
20
4.7320508
40
0.0825
0
CIRCLE
8
0
10
1.5
20
4.7320508
40
0.0825
0
CIRCLE
8
0
10
1.75
20
4.7320508
40
0.0825
0
CIRCLE
8
0
10
2
20
4.7320508
40
0.0825
0
CIRCLE
8
0
10
2.25
20
4.7320508
40
0.0825
0
CIRCLE
8
0
10
2.5
20
4.7320508
40
0.0825
0
CIRCLE
8
0
10
2.75
20
4.7320508
40
0.0825
0
CIRCLE
8
0
10
3
20
4.7320508
40
0.0825
0
CIRCLE
8
0
10
3.25
20
4.7320508
40
0.0825
0
CIRCLE
8
0
10
3.5
20
4.7320508
40
0.0825
0
CIRCLE
8
0
10
3.75
20
4.7320508
40
0.0825
0
CIRCLE
8
0
10
4
20
4.7320508
40
0.0825
0
CIRCLE
8
0
10
4.25
20
4.7320508
40
0.0825
0
CIRCLE
8
0
10
4.5
20
4.7320508
40
0.0825
0
CIRCLE
8
0
10
4.75
20
4.7320508
40
0.0825
0
CIRCLE
8
0
10
5
20
4.7320508
40
0.0825
0
CIRCLE
8
0
10
5.25
20
4.7320508
40
0.0825
0
CIRCLE
8
0
10
5.5
20
4.7320508
40
0.0825
0
CIRCLE
8
0
10
5.75
20
4.7320508
40
0.0825
0
CIRCLE
8
0
10
0.125
20
4.9485572
40
0.0825
0
CIRCLE
8
0
10
0.375
20
4.9485572
40
0.0825
0
CIRCLE
8
0
10
0.625
20
4.9485572
40
0.0825
0
CIRCLE
8
0
10
0.875
20
4.9485572
40
0.0825
0
CIRCLE
8
0
10
1.125
20
4.9485572
40
0.0825
0
CIRCLE
8
0
10
1.375
20
4.9485572
40
0.0825
0
CIRCLE
8
0
10
1.625
20
4.9485572
40
0.0825
0
CIRCLE
8
0
10
1.875
20
4.9485572
40
0.0825
0
CIRCLE
8
0
10
2.125
20
4.9485572
40
0.0825
0
CIRCLE
8
0
10
2.375
20
4.9485572
40
0.0825
0
CIRCLE
8
0
10
2.625
20
4.9485572
40
0.0825
0
CIRCLE
8
0
10
2.875
20
4.9485572
40
0.0825
0
CIRCLE
8
0
10
3.125
20
4.9485572
40
0.0825
0
CIRCLE
8
0
10
3.375
20
4.9485572
40
0.0825
0
CIRCLE
8
0
10
3.625
20
4.9485572
40
0.0825
0
CIRCLE
8
0
10
3.875
20
4.9485572
40
0.0825
0
CIRCLE
8
0
10
4.125
20
4.9485572
40
0.0825
0
CIRCLE
8
0
10
4.375
20
4.9485572
40
0.0825
0
CIRCLE
8
0
10
4.625
20
4.9485572
40
0.0825
0
CIRCLE
8
0
10
4.875
20
4.9485572
40
0.0825
0
CIRCLE
8
0
10
5.125
20
4.9485572
40
0.0825
0
CIRCLE
8
0
10
5.375
20
4.9485572
40
0.0825
0
CIRCLE
8
0
10
5.625
20
4.9485572
40
0.0825
0
CIRCLE
8
0
10
5.875
20
4.9485572
40
0.0825
0
CIRCLE
8
0
10
0.25
20
5.1650635
40
0.0825
0
CIRCLE
8
0
10
0.5
20
5.1650635
40
0.0825
0
CIRCLE
8
0
10
0.75
20
5.1650635
40
0.0825
0
CIRCLE
8
0
10
1
20
5.1650635
40
0.0825
0
CIRCLE
8
0
10
1.25
20
5.1650635
40
0.0825
0
CIRCLE
8
0
10
1.5
20
5.1650635
40
0.0825
0
CIRCLE
8
0
10
1.75
20
5.1650635
40
0.0825
0
CIRCLE
8
0
10
2
20
5.1650635
40
0.0825
0
CIRCLE
8
0
10
2.25
20
5.1650635
40
0.0825
0
CIRCLE
8
0
10
2.5
20
5.1650635
40
0.0825
0
CIRCLE
8
0
10
2.75
20
5.1650635
40
0.0825
0
CIRCLE
8
0
10
3
20
5.1650635
40
0.0825
0
CIRCLE
8
0
10
3.25
20
5.1650635
40
0.0825
0
CIRCLE
8
0
10
3.5
20
5.1650635
40
0.0825
0
CIRCLE
8
0
10
3.75
20
5.1650635
40
0.0825
0
CIRCLE
8
0
10
4
20
5.1650635
40
0.0825
0
CIRCLE
8
0
10
4.25
20
5.1650635
40
0.0825
0
CIRCLE
8
0
10
4.5
20
5.1650635
40
0.0825
0
CIRCLE
8
0
10
4.75
20
5.1650635
40
0.0825
0
CIRCLE
8
0
10
5
20
5.1650635
40
0.0825
0
CIRCLE
8
0
10
5.25
20
5.1650635
40
0.0825
0
CIRCLE
8
0
10
5.5
20
5.1650635
40
0.0825
0
CIRCLE
8
0
10
5.75
20
5.1650635
40
0.0825
0
CIRCLE
8
0
10
0.125
20
5.3815699
40
0.0825
0
CIRCLE
8
0
10
0.375
20
5.3815699
40
0.0825
0
CIRCLE
8
0
10
0.625
20
5.3815699
40
0.0825
0
CIRCLE
8
0
10
0.875
20
5.3815699
40
0.0825
0
CIRCLE
8
0
10
1.125
20
5.3815699
40
0.0825
0
CIRCLE
8
0
10
1.375
20
5.3815699
40
0.0825
0
CIRCLE
8
0
10
1.625
20
5.3815699
40
0.0825
0
CIRCLE
8
0
10
1.875
20
5.3815699
40
0.0825
0
CIRCLE
8
0
10
2.125
20
5.3815699
40
0.0825
0
CIRCLE
8
0
10
2.375
20
5.3815699
40
0.0825
0
CIRCLE
8
0
10
2.625
20
5.3815699
40
0.0825
0
CIRCLE
8
0
10
2.875
20
5.3815699
40
0.0825
0
CIRCLE
8
0
10
3.125
20
5.3815699
40
0.0825
0
CIRCLE
8
0
10
3.375
20
5.3815699
40
0.0825
0
CIRCLE
8
0
10
3.625
20
5.3815699
40
0.0825
0
CIRCLE
8
0
10
3.875
20
5.3815699
40
0.0825
0
CIRCLE
8
0
10
4.125
20
5.3815699
40
0.0825
0
CIRCLE
8
0
10
4.375
20
5.3815699
40
0.0825
0
CIRCLE
8
0
10
4.625
20
5.3815699
40
0.0825
0
CIRCLE
8
0
10
4.875
20
5.3815699
40
0.0825
0
CIRCLE
8
0
10
5.125
20
5.3815699
40
0.0825
0
CIRCLE
8
0
10
5.375
20
5.3815699
40
0.0825
0
CIRCLE
8
0
10
5.625
20
5.3815699
40
0.0825
0
CIRCLE
8
0
10
5.875
20
5.3815699
40
0.0825
0
CIRCLE
8
0
10
0.25
20
5.5980762
40
0.0825
0
CIRCLE
8
0
10
0.5
20
5.5980762
40
0.0825
0
CIRCLE
8
0
10
0.75
20
5.5980762
40
0.0825
0
CIRCLE
8
0
10
1
20
5.5980762
40
0.0825
0
CIRCLE
8
0
10
1.25
20
5.5980762
40
0.0825
0
CIRCLE
8
0
10
1.5
20
5.5980762
40
0.0825
0
CIRCLE
8
0
10
1.75
20
5.5980762
40
0.0825
0
CIRCLE
8
0
10
2
20
5.5980762
40
0.0825
0
CIRCLE
8
0
10
2.25
20
5.5980762
40
0.0825
0
CIRCLE
8
0
10
2.5
20
5.5980762
40
0.0825
0
CIRCLE
8
0
10
2.75
20
5.5980762
40
0.0825
0
CIRCLE
8
0
10
3
20
5.5980762
40
0.0825
0
CIRCLE
8
0
10
3.25
20
5.5980762
40
0.0825
0
CIRCLE
8
0
10
3.5
20
5.5980762
40
0.0825
0
CIRCLE
8
0
10
3.75
20
5.5980762
40
0.0825
0
CIRCLE
8
0
10
4
20
5.5980762
40
0.0825
0
CIRCLE
8
0
10
4.25
20
5.5980762
40
0.0825
0
CIRCLE
8
0
10
4.5
20
5.5980762
40
0.0825
0
CIRCLE
8
0
10
4.75
20
5.5980762
40
0.0825
0
CIRCLE
8
0
10
5
20
5.5980762
40
0.0825
0
CIRCLE
8
0
10
5.25
20
5.5980762
40
0.0825
0
CIRCLE
8
0
10
5.5
20
5.5980762
40
0.0825
0
CIRCLE
8
0
10
5.75
20
5.5980762
40
0.0825
0
CIRCLE
8
0
10
0.125
20
5.8145826
40
0.0825
0
CIRCLE
8
0
10
0.375
20
5.8145826
40
0.0825
0
CIRCLE
8
0
10
0.625
20
5.8145826
40
0.0825
0
CIRCLE
8
0
10
0.875
20
5.8145826
40
0.0825
0
CIRCLE
8
0
10
1.125
20
5.8145826
40
0.0825
0
CIRCLE
8
0
10
1.375
20
5.8145826
40
0.0825
0
CIRCLE
8
0
10
1.625
20
5.8145826
40
0.0825
0
CIRCLE
8
0
10
1.875
20
5.8145826
40
0.0825
0
CIRCLE
8
0
10
2.125
20
5.8145826
40
0.0825
0
CIRCLE
8
0
10
2.375
20
5.8145826
40
0.0825
0
CIRCLE
8
0
10
2.625
20
5.8145826
40
0.0825
0
CIRCLE
8
0
10
2.875
20
5.8145826
40
0.0825
0
CIRCLE
8
0
10
3.125
20
5.8145826
40
0.0825
0
CIRCLE
8
0
10
3.375
20
5.8145826
40
0.0825
0
CIRCLE
8
0
10
3.625
20
5.8145826
40
0.0825
0
CIRCLE
8
0
10
3.875
20
5.8145826
40
0.0825
0
CIRCLE
8
0
10
4.125
20
5.8145826
40
0.0825
0
CIRCLE
8
0
10
4.375
20
5.8145826
40
0.0825
0
CIRCLE
8
0
10
4.625
20
5.8145826
40
0.0825
0
CIRCLE
8
0
10
4.875
20
5.8145826
40
0.0825
0
CIRCLE
8
0
10
5.125
20
5.8145826
40
0.0825
0
CIRCLE
8
0
10
5.375
20
5.8145826
40
0.0825
0
CIRCLE
8
0
10
5.625
20
5.8145826
40
0.0825
0
CIRCLE
8
0
10
5.875
20
5.8145826
40
0.0825
0
ENDSEC
0
EOF
