0
SECTION
2
HEADER
9
$INSUNITS
70
1
0
ENDSEC
0
SECTION
2
TABLES
0
TABLE
2
LAYER
0
ENDTAB
0
ENDSEC
0
SECTION
2
ENTITIES
0
LINE
8
0
10
0
20
0
11
6
21
0
0
LINE
8
0
10
6
20
0
11
6
21
6
0
LINE
8
0
10
6
20
6
11
0
21
6
0
LINE
8
0
10
0
20
6
11
0
21
0
0
CIRCLE
8
0
10
0.16536
20
0.1359847
40
0.0859375
0
CIRCLE
8
0
10
0.40158
20
0.1359847
40
0.0859375
0
CIRCLE
8
0
10
0.6378
20
0.1359847
40
0.0859375
0
CIRCLE
8
0
10
0.87402
20
0.1359847
40
0.0859375
0
CIRCLE
8
0
10
1.11024
20
0.1359847
40
0.0859375
0
CIRCLE
8
0
10
1.34646
20
0.1359847
40
0.0859375
0
CIRCLE
8
0
10
1.58268
20
0.1359847
40
0.0859375
0
CIRCLE
8
0
10
1.8189
20
0.1359847
40
0.0859375
0
CIRCLE
8
0
10
2.05512
20
0.1359847
40
0.0859375
0
CIRCLE
8
0
10
2.29134
20
0.1359847
40
0.0859375
0
CIRCLE
8
0
10
2.52756
20
0.1359847
40
0.0859375
0
CIRCLE
8
0
10
2.76378
20
0.1359847
40
0.0859375
0
CIRCLE
8
0
10
3
20
0.1359847
40
0.0859375
0
CIRCLE
8
0
10
3.23622
20
0.1359847
40
0.0859375
0
CIRCLE
8
0
10
3.47244
20
0.1359847
40
0.0859375
0
CIRCLE
8
0
10
3.70866
20
0.1359847
40
0.0859375
0
CIRCLE
8
0
10
3.94488
20
0.1359847
40
0.0859375
0
CIRCLE
8
0
10
4.1811
20
0.1359847
40
0.0859375
0
CIRCLE
8
0
10
4.41732
20
0.1359847
40
0.0859375
0
CIRCLE
8
0
10
4.65354
20
0.1359847
40
0.0859375
0
CIRCLE
8
0
10
4.88976
20
0.1359847
40
0.0859375
0
CIRCLE
8
0
10
5.12598
20
0.1359847
40
0.0859375
0
CIRCLE
8
0
10
5.3622
20
0.1359847
40
0.0859375
0
CIRCLE
8
0
10
5.59842
20
0.1359847
40
0.0859375
0
CIRCLE
8
0
10
5.83464
20
0.1359847
40
0.0859375
0
CIRCLE
8
0
10
0.28347
20
0.3405572
40
0.0859375
0
CIRCLE
8
0
10
0.51969
20
0.3405572
40
0.0859375
0
CIRCLE
8
0
10
0.75591
20
0.3405572
40
0.0859375
0
CIRCLE
8
0
10
0.99213
20
0.3405572
40
0.0859375
0
CIRCLE
8
0
10
1.22835
20
0.3405572
40
0.0859375
0
CIRCLE
8
0
10
1.46457
20
0.3405572
40
0.0859375
0
CIRCLE
8
0
10
1.70079
20
0.3405572
40
0.0859375
0
CIRCLE
8
0
10
1.93701
20
0.3405572
40
0.0859375
0
CIRCLE
8
0
10
2.17323
20
0.3405572
40
0.0859375
0
CIRCLE
8
0
10
2.40945
20
0.3405572
40
0.0859375
0
CIRCLE
8
0
10
2.64567
20
0.3405572
40
0.0859375
0
CIRCLE
8
0
10
2.88189
20
0.3405572
40
0.0859375
0
CIRCLE
8
0
10
3.11811
20
0.3405572
40
0.0859375
0
CIRCLE
8
0
10
3.35433
20
0.3405572
40
0.0859375
0
CIRCLE
8
0
10
3.59055
20
0.3405572
40
0.0859375
0
CIRCLE
8
0
10
3.82677
20
0.3405572
40
0.0859375
0
CIRCLE
8
0
10
4.06299
20
0.3405572
40
0.0859375
0
CIRCLE
8
0
10
4.29921
20
0.3405572
40
0.0859375
0
CIRCLE
8
0
10
4.53543
20
0.3405572
40
0.0859375
0
CIRCLE
8
0
10
4.77165
20
0.3405572
40
0.0859375
0
CIRCLE
8
0
10
5.00787
20
0.3405572
40
0.0859375
0
CIRCLE
8
0
10
5.24409
20
0.3405572
40
0.0859375
0
CIRCLE
8
0
10
5.48031
20
0.3405572
40
0.0859375
0
CIRCLE
8
0
10
5.71653
20
0.3405572
40
0.0859375
0
CIRCLE
8
0
10
0.16536
20
0.5451297
40
0.0859375
0
CIRCLE
8
0
10
0.40158
20
0.5451297
40
0.0859375
0
CIRCLE
8
0
10
0.6378
20
0.5451297
40
0.0859375
0
CIRCLE
8
0
10
0.87402
20
0.5451297
40
0.0859375
0
CIRCLE
8
0
10
1.11024
20
0.5451297
40
0.0859375
0
CIRCLE
8
0
10
1.34646
20
0.5451297
40
0.0859375
0
CIRCLE
8
0
10
1.58268
20
0.5451297
40
0.0859375
0
CIRCLE
8
0
10
1.8189
20
0.5451297
40
0.0859375
0
CIRCLE
8
0
10
2.05512
20
0.5451297
40
0.0859375
0
CIRCLE
8
0
10
2.29134
20
0.5451297
40
0.0859375
0
CIRCLE
8
0
10
2.52756
20
0.5451297
40
0.0859375
0
CIRCLE
8
0
10
2.76378
20
0.5451297
40
0.0859375
0
CIRCLE
8
0
10
3
20
0.5451297
40
0.0859375
0
CIRCLE
8
0
10
3.23622
20
0.5451297
40
0.0859375
0
CIRCLE
8
0
10
3.47244
20
0.5451297
40
0.0859375
0
CIRCLE
8
0
10
3.70866
20
0.5451297
40
0.0859375
0
CIRCLE
8
0
10
3.94488
20
0.5451297
40
0.0859375
0
CIRCLE
8
0
10
4.1811
20
0.5451297
40
0.0859375
0
CIRCLE
8
0
10
4.41732
20
0.5451297
40
0.0859375
0
CIRCLE
8
0
10
4.65354
20
0.5451297
40
0.0859375
0
CIRCLE
8
0
10
4.88976
20
0.5451297
40
0.0859375
0
CIRCLE
8
0
10
5.12598
20
0.5451297
40
0.0859375
0
CIRCLE
8
0
10
5.3622
20
0.5451297
40
0.0859375
0
CIRCLE
8
0
10
5.59842
20
0.5451297
40
0.0859375
0
CIRCLE
8
0
10
5.83464
20
0.5451297
40
0.0859375
0
CIRCLE
8
0
10
0.28347
20
0.7497023
40
0.0859375
0
CIRCLE
8
0
10
0.51969
20
0.7497023
40
0.0859375
0
CIRCLE
8
0
10
0.75591
20
0.7497023
40
0.0859375
0
CIRCLE
8
0
10
0.99213
20
0.7497023
40
0.0859375
0
CIRCLE
8
0
10
1.22835
20
0.7497023
40
0.0859375
0
CIRCLE
8
0
10
1.46457
20
0.7497023
40
0.0859375
0
CIRCLE
8
0
10
1.70079
20
0.7497023
40
0.0859375
0
CIRCLE
8
0
10
1.93701
20
0.7497023
40
0.0859375
0
CIRCLE
8
0
10
2.17323
20
0.7497023
40
0.0859375
0
CIRCLE
8
0
10
2.40945
20
0.7497023
40
0.0859375
0
CIRCLE
8
0
10
2.64567
20
0.7497023
40
0.0859375
0
CIRCLE
8
0
10
2.88189
20
0.7497023
40
0.0859375
0
CIRCLE
8
0
10
3.11811
20
0.7497023
40
0.0859375
0
CIRCLE
8
0
10
3.35433
20
0.7497023
40
0.0859375
0
CIRCLE
8
0
10
3.59055
20
0.7497023
40
0.0859375
0
CIRCLE
8
0
10
3.82677
20
0.7497023
40
0.0859375
0
CIRCLE
8
0
10
4.06299
20
0.7497023
40
0.0859375
0
CIRCLE
8
0
10
4.29921
20
0.7497023
40
0.0859375
0
CIRCLE
8
0
10
4.53543
20
0.7497023
40
0.0859375
0
CIRCLE
8
0
10
4.77165
20
0.7497023
40
0.0859375
0
CIRCLE
8
0
10
5.00787
20
0.7497023
40
0.0859375
0
CIRCLE
8
0
10
5.24409
20
0.7497023
40
0.0859375
0
CIRCLE
8
0
10
5.48031
20
0.7497023
40
0.0859375
0
CIRCLE
8
0
10
5.71653
20
0.7497023
40
0.0859375
0
CIRCLE
8
0
10
0.16536
20
0.9542748
40
0.0859375
0
CIRCLE
8
0
10
0.40158
20
0.9542748
40
0.0859375
0
CIRCLE
8
0
10
0.6378
20
0.9542748
40
0.0859375
0
CIRCLE
8
0
10
0.87402
20
0.9542748
40
0.0859375
0
CIRCLE
8
0
10
1.11024
20
0.9542748
40
0.0859375
0
CIRCLE
8
0
10
1.34646
20
0.9542748
40
0.0859375
0
CIRCLE
8
0
10
1.58268
20
0.9542748
40
0.0859375
0
CIRCLE
8
0
10
1.8189
20
0.9542748
40
0.0859375
0
CIRCLE
8
0
10
2.05512
20
0.9542748
40
0.0859375
0
CIRCLE
8
0
10
2.29134
20
0.9542748
40
0.0859375
0
CIRCLE
8
0
10
2.52756
20
0.9542748
40
0.0859375
0
CIRCLE
8
0
10
2.76378
20
0.9542748
40
0.0859375
0
CIRCLE
8
0
10
3
20
0.9542748
40
0.0859375
0
CIRCLE
8
0
10
3.23622
20
0.9542748
40
0.0859375
0
CIRCLE
8
0
10
3.47244
20
0.9542748
40
0.0859375
0
CIRCLE
8
0
10
3.70866
20
0.9542748
40
0.0859375
0
CIRCLE
8
0
10
3.94488
20
0.9542748
40
0.0859375
0
CIRCLE
8
0
10
4.1811
20
0.9542748
40
0.0859375
0
CIRCLE
8
0
10
4.41732
20
0.9542748
40
0.0859375
0
CIRCLE
8
0
10
4.65354
20
0.9542748
40
0.0859375
0
CIRCLE
8
0
10
4.88976
20
0.9542748
40
0.0859375
0
CIRCLE
8
0
10
5.12598
20
0.9542748
40
0.0859375
0
CIRCLE
8
0
10
5.3622
20
0.9542748
40
0.0859375
0
CIRCLE
8
0
10
5.59842
20
0.9542748
40
0.0859375
0
CIRCLE
8
0
10
5.83464
20
0.9542748
40
0.0859375
0
CIRCLE
8
0
10
0.28347
20
1.1588473
40
0.0859375
0
CIRCLE
8
0
10
0.51969
20
1.1588473
40
0.0859375
0
CIRCLE
8
0
10
0.75591
20
1.1588473
40
0.0859375
0
CIRCLE
8
0
10
0.99213
20
1.1588473
40
0.0859375
0
CIRCLE
8
0
10
1.22835
20
1.1588473
40
0.0859375
0
CIRCLE
8
0
10
1.46457
20
1.1588473
40
0.0859375
0
CIRCLE
8
0
10
1.70079
20
1.1588473
40
0.0859375
0
CIRCLE
8
0
10
1.93701
20
1.1588473
40
0.0859375
0
CIRCLE
8
0
10
2.17323
20
1.1588473
40
0.0859375
0
CIRCLE
8
0
10
2.40945
20
1.1588473
40
0.0859375
0
CIRCLE
8
0
10
2.64567
20
1.1588473
40
0.0859375
0
CIRCLE
8
0
10
2.88189
20
1.1588473
40
0.0859375
0
CIRCLE
8
0
10
3.11811
20
1.1588473
40
0.0859375
0
CIRCLE
8
0
10
3.35433
20
1.1588473
40
0.0859375
0
CIRCLE
8
0
10
3.59055
20
1.1588473
40
0.0859375
0
CIRCLE
8
0
10
3.82677
20
1.1588473
40
0.0859375
0
CIRCLE
8
0
10
4.06299
20
1.1588473
40
0.0859375
0
CIRCLE
8
0
10
4.29921
20
1.1588473
40
0.0859375
0
CIRCLE
8
0
10
4.53543
20
1.1588473
40
0.0859375
0
CIRCLE
8
0
10
4.77165
20
1.1588473
40
0.0859375
0
CIRCLE
8
0
10
5.00787
20
1.1588473
40
0.0859375
0
CIRCLE
8
0
10
5.24409
20
1.1588473
40
0.0859375
0
CIRCLE
8
0
10
5.48031
20
1.1588473
40
0.0859375
0
CIRCLE
8
0
10
5.71653
20
1.1588473
40
0.0859375
0
CIRCLE
8
0
10
0.16536
20
1.3634198
40
0.0859375
0
CIRCLE
8
0
10
0.40158
20
1.3634198
40
0.0859375
0
CIRCLE
8
0
10
0.6378
20
1.3634198
40
0.0859375
0
CIRCLE
8
0
10
0.87402
20
1.3634198
40
0.0859375
0
CIRCLE
8
0
10
1.11024
20
1.3634198
40
0.0859375
0
CIRCLE
8
0
10
1.34646
20
1.3634198
40
0.0859375
0
CIRCLE
8
0
10
1.58268
20
1.3634198
40
0.0859375
0
CIRCLE
8
0
10
1.8189
20
1.3634198
40
0.0859375
0
CIRCLE
8
0
10
2.05512
20
1.3634198
40
0.0859375
0
CIRCLE
8
0
10
2.29134
20
1.3634198
40
0.0859375
0
CIRCLE
8
0
10
2.52756
20
1.3634198
40
0.0859375
0
CIRCLE
8
0
10
2.76378
20
1.3634198
40
0.0859375
0
CIRCLE
8
0
10
3
20
1.3634198
40
0.0859375
0
CIRCLE
8
0
10
3.23622
20
1.3634198
40
0.0859375
0
CIRCLE
8
0
10
3.47244
20
1.3634198
40
0.0859375
0
CIRCLE
8
0
10
3.70866
20
1.3634198
40
0.0859375
0
CIRCLE
8
0
10
3.94488
20
1.3634198
40
0.0859375
0
CIRCLE
8
0
10
4.1811
20
1.3634198
40
0.0859375
0
CIRCLE
8
0
10
4.41732
20
1.3634198
40
0.0859375
0
CIRCLE
8
0
10
4.65354
20
1.3634198
40
0.0859375
0
CIRCLE
8
0
10
4.88976
20
1.3634198
40
0.0859375
0
CIRCLE
8
0
10
5.12598
20
1.3634198
40
0.0859375
0
CIRCLE
8
0
10
5.3622
20
1.3634198
40
0.0859375
0
CIRCLE
8
0
10
5.59842
20
1.3634198
40
0.0859375
0
CIRCLE
8
0
10
5.83464
20
1.3634198
40
0.0859375
0
CIRCLE
8
0
10
0.28347
20
1.5679924
40
0.0859375
0
CIRCLE
8
0
10
0.51969
20
1.5679924
40
0.0859375
0
CIRCLE
8
0
10
0.75591
20
1.5679924
40
0.0859375
0
CIRCLE
8
0
10
0.99213
20
1.5679924
40
0.0859375
0
CIRCLE
8
0
10
1.22835
20
1.5679924
40
0.0859375
0
CIRCLE
8
0
10
1.46457
20
1.5679924
40
0.0859375
0
CIRCLE
8
0
10
1.70079
20
1.5679924
40
0.0859375
0
CIRCLE
8
0
10
1.93701
20
1.5679924
40
0.0859375
0
CIRCLE
8
0
10
2.17323
20
1.5679924
40
0.0859375
0
CIRCLE
8
0
10
2.40945
20
1.5679924
40
0.0859375
0
CIRCLE
8
0
10
2.64567
20
1.5679924
40
0.0859375
0
CIRCLE
8
0
10
2.88189
20
1.5679924
40
0.0859375
0
CIRCLE
8
0
10
3.11811
20
1.5679924
40
0.0859375
0
CIRCLE
8
0
10
3.35433
20
1.5679924
40
0.0859375
0
CIRCLE
8
0
10
3.59055
20
1.5679924
40
0.0859375
0
CIRCLE
8
0
10
3.82677
20
1.5679924
40
0.0859375
0
CIRCLE
8
0
10
4.06299
20
1.5679924
40
0.0859375
0
CIRCLE
8
0
10
4.29921
20
1.5679924
40
0.0859375
0
CIRCLE
8
0
10
4.53543
20
1.5679924
40
0.0859375
0
CIRCLE
8
0
10
4.77165
20
1.5679924
40
0.0859375
0
CIRCLE
8
0
10
5.00787
20
1.5679924
40
0.0859375
0
CIRCLE
8
0
10
5.24409
20
1.5679924
40
0.0859375
0
CIRCLE
8
0
10
5.48031
20
1.5679924
40
0.0859375
0
CIRCLE
8
0
10
5.71653
20
1.5679924
40
0.0859375
0
CIRCLE
8
0
10
0.16536
20
1.7725649
40
0.0859375
0
CIRCLE
8
0
10
0.40158
20
1.7725649
40
0.0859375
0
CIRCLE
8
0
10
0.6378
20
1.7725649
40
0.0859375
0
CIRCLE
8
0
10
0.87402
20
1.7725649
40
0.0859375
0
CIRCLE
8
0
10
1.11024
20
1.7725649
40
0.0859375
0
CIRCLE
8
0
10
1.34646
20
1.7725649
40
0.0859375
0
CIRCLE
8
0
10
1.58268
20
1.7725649
40
0.0859375
0
CIRCLE
8
0
10
1.8189
20
1.7725649
40
0.0859375
0
CIRCLE
8
0
10
2.05512
20
1.7725649
40
0.0859375
0
CIRCLE
8
0
10
2.29134
20
1.7725649
40
0.0859375
0
CIRCLE
8
0
10
2.52756
20
1.7725649
40
0.0859375
0
CIRCLE
8
0
10
2.76378
20
1.7725649
40
0.0859375
0
CIRCLE
8
0
10
3
20
1.7725649
40
0.0859375
0
CIRCLE
8
0
10
3.23622
20
1.7725649
40
0.0859375
0
CIRCLE
8
0
10
3.47244
20
1.7725649
40
0.0859375
0
CIRCLE
8
0
10
3.70866
20
1.7725649
40
0.0859375
0
CIRCLE
8
0
10
3.94488
20
1.7725649
40
0.0859375
0
CIRCLE
8
0
10
4.1811
20
1.7725649
40
0.0859375
0
CIRCLE
8
0
10
4.41732
20
1.7725649
40
0.0859375
0
CIRCLE
8
0
10
4.65354
20
1.7725649
40
0.0859375
0
CIRCLE
8
0
10
4.88976
20
1.7725649
40
0.0859375
0
CIRCLE
8
0
10
5.12598
20
1.7725649
40
0.0859375
0
CIRCLE
8
0
10
5.3622
20
1.7725649
40
0.0859375
0
CIRCLE
8
0
10
5.59842
20
1.7725649
40
0.0859375
0
CIRCLE
8
0
10
5.83464
20
1.7725649
40
0.0859375
0
CIRCLE
8
0
10
0.28347
20
1.9771374
40
0.0859375
0
CIRCLE
8
0
10
0.51969
20
1.9771374
40
0.0859375
0
CIRCLE
8
0
10
0.75591
20
1.9771374
40
0.0859375
0
CIRCLE
8
0
10
0.99213
20
1.9771374
40
0.0859375
0
CIRCLE
8
0
10
1.22835
20
1.9771374
40
0.0859375
0
CIRCLE
8
0
10
1.46457
20
1.9771374
40
0.0859375
0
CIRCLE
8
0
10
1.70079
20
1.9771374
40
0.0859375
0
CIRCLE
8
0
10
1.93701
20
1.9771374
40
0.0859375
0
CIRCLE
8
0
10
2.17323
20
1.9771374
40
0.0859375
0
CIRCLE
8
0
10
2.40945
20
1.9771374
40
0.0859375
0
CIRCLE
8
0
10
2.64567
20
1.9771374
40
0.0859375
0
CIRCLE
8
0
10
2.88189
20
1.9771374
40
0.0859375
0
CIRCLE
8
0
10
3.11811
20
1.9771374
40
0.0859375
0
CIRCLE
8
0
10
3.35433
20
1.9771374
40
0.0859375
0
CIRCLE
8
0
10
3.59055
20
1.9771374
40
0.0859375
0
CIRCLE
8
0
10
3.82677
20
1.9771374
40
0.0859375
0
CIRCLE
8
0
10
4.06299
20
1.9771374
40
0.0859375
0
CIRCLE
8
0
10
4.29921
20
1.9771374
40
0.0859375
0
CIRCLE
8
0
10
4.53543
20
1.9771374
40
0.0859375
0
CIRCLE
8
0
10
4.77165
20
1.9771374
40
0.0859375
0
CIRCLE
8
0
10
5.00787
20
1.9771374
40
0.0859375
0
CIRCLE
8
0
10
5.24409
20
1.9771374
40
0.0859375
0
CIRCLE
8
0
10
5.48031
20
1.9771374
40
0.0859375
0
CIRCLE
8
0
10
5.71653
20
1.9771374
40
0.0859375
0
CIRCLE
8
0
10
0.16536
20
2.1817099
40
0.0859375
0
CIRCLE
8
0
10
0.40158
20
2.1817099
40
0.0859375
0
CIRCLE
8
0
10
0.6378
20
2.1817099
40
0.0859375
0
CIRCLE
8
0
10
0.87402
20
2.1817099
40
0.0859375
0
CIRCLE
8
0
10
1.11024
20
2.1817099
40
0.0859375
0
CIRCLE
8
0
10
1.34646
20
2.1817099
40
0.0859375
0
CIRCLE
8
0
10
1.58268
20
2.1817099
40
0.0859375
0
CIRCLE
8
0
10
1.8189
20
2.1817099
40
0.0859375
0
CIRCLE
8
0
10
2.05512
20
2.1817099
40
0.0859375
0
CIRCLE
8
0
10
2.29134
20
2.1817099
40
0.0859375
0
CIRCLE
8
0
10
2.52756
20
2.1817099
40
0.0859375
0
CIRCLE
8
0
10
2.76378
20
2.1817099
40
0.0859375
0
CIRCLE
8
0
10
3
20
2.1817099
40
0.0859375
0
CIRCLE
8
0
10
3.23622
20
2.1817099
40
0.0859375
0
CIRCLE
8
0
10
3.47244
20
2.1817099
40
0.0859375
0
CIRCLE
8
0
10
3.70866
20
2.1817099
40
0.0859375
0
CIRCLE
8
0
10
3.94488
20
2.1817099
40
0.0859375
0
CIRCLE
8
0
10
4.1811
20
2.1817099
40
0.0859375
0
CIRCLE
8
0
10
4.41732
20
2.1817099
40
0.0859375
0
CIRCLE
8
0
10
4.65354
20
2.1817099
40
0.0859375
0
CIRCLE
8
0
10
4.88976
20
2.1817099
40
0.0859375
0
CIRCLE
8
0
10
5.12598
20
2.1817099
40
0.0859375
0
CIRCLE
8
0
10
5.3622
20
2.1817099
40
0.0859375
0
CIRCLE
8
0
10
5.59842
20
2.1817099
40
0.0859375
0
CIRCLE
8
0
10
5.83464
20
2.1817099
40
0.0859375
0
CIRCLE
8
0
10
0.28347
20
2.3862824
40
0.0859375
0
CIRCLE
8
0
10
0.51969
20
2.3862824
40
0.0859375
0
CIRCLE
8
0
10
0.75591
20
2.3862824
40
0.0859375
0
CIRCLE
8
0
10
0.99213
20
2.3862824
40
0.0859375
0
CIRCLE
8
0
10
1.22835
20
2.3862824
40
0.0859375
0
CIRCLE
8
0
10
1.46457
20
2.3862824
40
0.0859375
0
CIRCLE
8
0
10
1.70079
20
2.3862824
40
0.0859375
0
CIRCLE
8
0
10
1.93701
20
2.3862824
40
0.0859375
0
CIRCLE
8
0
10
2.17323
20
2.3862824
40
0.0859375
0
CIRCLE
8
0
10
2.40945
20
2.3862824
40
0.0859375
0
CIRCLE
8
0
10
2.64567
20
2.3862824
40
0.0859375
0
CIRCLE
8
0
10
2.88189
20
2.3862824
40
0.0859375
0
CIRCLE
8
0
10
3.11811
20
2.3862824
40
0.0859375
0
CIRCLE
8
0
10
3.35433
20
2.3862824
40
0.0859375
0
CIRCLE
8
0
10
3.59055
20
2.3862824
40
0.0859375
0
CIRCLE
8
0
10
3.82677
20
2.3862824
40
0.0859375
0
CIRCLE
8
0
10
4.06299
20
2.3862824
40
0.0859375
0
CIRCLE
8
0
10
4.29921
20
2.3862824
40
0.0859375
0
CIRCLE
8
0
10
4.53543
20
2.3862824
40
0.0859375
0
CIRCLE
8
0
10
4.77165
20
2.3862824
40
0.0859375
0
CIRCLE
8
0
10
5.00787
20
2.3862824
40
0.0859375
0
CIRCLE
8
0
10
5.24409
20
2.3862824
40
0.0859375
0
CIRCLE
8
0
10
5.48031
20
2.3862824
40
0.0859375
0
CIRCLE
8
0
10
5.71653
20
2.3862824
40
0.0859375
0
CIRCLE
8
0
10
0.16536
20
2.590855
40
0.0859375
0
CIRCLE
8
0
10
0.40158
20
2.590855
40
0.0859375
0
CIRCLE
8
0
10
0.6378
20
2.590855
40
0.0859375
0
CIRCLE
8
0
10
0.87402
20
2.590855
40
0.0859375
0
CIRCLE
8
0
10
1.11024
20
2.590855
40
0.0859375
0
CIRCLE
8
0
10
1.34646
20
2.590855
40
0.0859375
0
CIRCLE
8
0
10
1.58268
20
2.590855
40
0.0859375
0
CIRCLE
8
0
10
1.8189
20
2.590855
40
0.0859375
0
CIRCLE
8
0
10
2.05512
20
2.590855
40
0.0859375
0
CIRCLE
8
0
10
2.29134
20
2.590855
40
0.0859375
0
CIRCLE
8
0
10
2.52756
20
2.590855
40
0.0859375
0
CIRCLE
8
0
10
2.76378
20
2.590855
40
0.0859375
0
CIRCLE
8
0
10
3
20
2.590855
40
0.0859375
0
CIRCLE
8
0
10
3.23622
20
2.590855
40
0.0859375
0
CIRCLE
8
0
10
3.47244
20
2.590855
40
0.0859375
0
CIRCLE
8
0
10
3.70866
20
2.590855
40
0.0859375
0
CIRCLE
8
0
10
3.94488
20
2.590855
40
0.0859375
0
CIRCLE
8
0
10
4.1811
20
2.590855
40
0.0859375
0
CIRCLE
8
0
10
4.41732
20
2.590855
40
0.0859375
0
CIRCLE
8
0
10
4.65354
20
2.590855
40
0.0859375
0
CIRCLE
8
0
10
4.88976
20
2.590855
40
0.0859375
0
CIRCLE
8
0
10
5.12598
20
2.590855
40
0.0859375
0
CIRCLE
8
0
10
5.3622
20
2.590855
40
0.0859375
0
CIRCLE
8
0
10
5.59842
20
2.590855
40
0.0859375
0
CIRCLE
8
0
10
5.83464
20
2.590855
40
0.0859375
0
CIRCLE
8
0
10
0.28347
20
2.7954275
40
0.0859375
0
CIRCLE
8
0
10
0.51969
20
2.7954275
40
0.0859375
0
CIRCLE
8
0
10
0.75591
20
2.7954275
40
0.0859375
0
CIRCLE
8
0
10
0.99213
20
2.7954275
40
0.0859375
0
CIRCLE
8
0
10
1.22835
20
2.7954275
40
0.0859375
0
CIRCLE
8
0
10
1.46457
20
2.7954275
40
0.0859375
0
CIRCLE
8
0
10
1.70079
20
2.7954275
40
0.0859375
0
CIRCLE
8
0
10
1.93701
20
2.7954275
40
0.0859375
0
CIRCLE
8
0
10
2.17323
20
2.7954275
40
0.0859375
0
CIRCLE
8
0
10
2.40945
20
2.7954275
40
0.0859375
0
CIRCLE
8
0
10
2.64567
20
2.7954275
40
0.0859375
0
CIRCLE
8
0
10
2.88189
20
2.7954275
40
0.0859375
0
CIRCLE
8
0
10
3.11811
20
2.7954275
40
0.0859375
0
CIRCLE
8
0
10
3.35433
20
2.7954275
40
0.0859375
0
CIRCLE
8
0
10
3.59055
20
2.7954275
40
0.0859375
0
CIRCLE
8
0
10
3.82677
20
2.7954275
40
0.0859375
0
CIRCLE
8
0
10
4.06299
20
2.7954275
40
0.0859375
0
CIRCLE
8
0
10
4.29921
20
2.7954275
40
0.0859375
0
CIRCLE
8
0
10
4.53543
20
2.7954275
40
0.0859375
0
CIRCLE
8
0
10
4.77165
20
2.7954275
40
0.0859375
0
CIRCLE
8
0
10
5.00787
20
2.7954275
40
0.0859375
0
CIRCLE
8
0
10
5.24409
20
2.7954275
40
0.0859375
0
CIRCLE
8
0
10
5.48031
20
2.7954275
40
0.0859375
0
CIRCLE
8
0
10
5.71653
20
2.7954275
40
0.0859375
0
CIRCLE
8
0
10
0.16536
20
3
40
0.0859375
0
CIRCLE
8
0
10
0.40158
20
3
40
0.0859375
0
CIRCLE
8
0
10
0.6378
20
3
40
0.0859375
0
CIRCLE
8
0
10
0.87402
20
3
40
0.0859375
0
CIRCLE
8
0
10
1.11024
20
3
40
0.0859375
0
CIRCLE
8
0
10
1.34646
20
3
40
0.0859375
0
CIRCLE
8
0
10
1.58268
20
3
40
0.0859375
0
CIRCLE
8
0
10
1.8189
20
3
40
0.0859375
0
CIRCLE
8
0
10
2.05512
20
3
40
0.0859375
0
CIRCLE
8
0
10
2.29134
20
3
40
0.0859375
0
CIRCLE
8
0
10
2.52756
20
3
40
0.0859375
0
CIRCLE
8
0
10
2.76378
20
3
40
0.0859375
0
CIRCLE
8
0
10
3
20
3
40
0.0859375
0
CIRCLE
8
0
10
3.23622
20
3
40
0.0859375
0
CIRCLE
8
0
10
3.47244
20
3
40
0.0859375
0
CIRCLE
8
0
10
3.70866
20
3
40
0.0859375
0
CIRCLE
8
0
10
3.94488
20
3
40
0.0859375
0
CIRCLE
8
0
10
4.1811
20
3
40
0.0859375
0
CIRCLE
8
0
10
4.41732
20
3
40
0.0859375
0
CIRCLE
8
0
10
4.65354
20
3
40
0.0859375
0
CIRCLE
8
0
10
4.88976
20
3
40
0.0859375
0
CIRCLE
8
0
10
5.12598
20
3
40
0.0859375
0
CIRCLE
8
0
10
5.3622
20
3
40
0.0859375
0
CIRCLE
8
0
10
5.59842
20
3
40
0.0859375
0
CIRCLE
8
0
10
5.83464
20
3
40
0.0859375
0
CIRCLE
8
0
10
0.28347
20
3.2045725
40
0.0859375
0
CIRCLE
8
0
10
0.51969
20
3.2045725
40
0.0859375
0
CIRCLE
8
0
10
0.75591
20
3.2045725
40
0.0859375
0
CIRCLE
8
0
10
0.99213
20
3.2045725
40
0.0859375
0
CIRCLE
8
0
10
1.22835
20
3.2045725
40
0.0859375
0
CIRCLE
8
0
10
1.46457
20
3.2045725
40
0.0859375
0
CIRCLE
8
0
10
1.70079
20
3.2045725
40
0.0859375
0
CIRCLE
8
0
10
1.93701
20
3.2045725
40
0.0859375
0
CIRCLE
8
0
10
2.17323
20
3.2045725
40
0.0859375
0
CIRCLE
8
0
10
2.40945
20
3.2045725
40
0.0859375
0
CIRCLE
8
0
10
2.64567
20
3.2045725
40
0.0859375
0
CIRCLE
8
0
10
2.88189
20
3.2045725
40
0.0859375
0
CIRCLE
8
0
10
3.11811
20
3.2045725
40
0.0859375
0
CIRCLE
8
0
10
3.35433
20
3.2045725
40
0.0859375
0
CIRCLE
8
0
10
3.59055
20
3.2045725
40
0.0859375
0
CIRCLE
8
0
10
3.82677
20
3.2045725
40
0.0859375
0
CIRCLE
8
0
10
4.06299
20
3.2045725
40
0.0859375
0
CIRCLE
8
0
10
4.29921
20
3.2045725
40
0.0859375
0
CIRCLE
8
0
10
4.53543
20
3.2045725
40
0.0859375
0
CIRCLE
8
0
10
4.77165
20
3.2045725
40
0.0859375
0
CIRCLE
8
0
10
5.00787
20
3.2045725
40
0.0859375
0
CIRCLE
8
0
10
5.24409
20
3.2045725
40
0.0859375
0
CIRCLE
8
0
10
5.48031
20
3.2045725
40
0.0859375
0
CIRCLE
8
0
10
5.71653
20
3.2045725
40
0.0859375
0
CIRCLE
8
0
10
0.16536
20
3.409145
40
0.0859375
0
CIRCLE
8
0
10
0.40158
20
3.409145
40
0.0859375
0
CIRCLE
8
0
10
0.6378
20
3.409145
40
0.0859375
0
CIRCLE
8
0
10
0.87402
20
3.409145
40
0.0859375
0
CIRCLE
8
0
10
1.11024
20
3.409145
40
0.0859375
0
CIRCLE
8
0
10
1.34646
20
3.409145
40
0.0859375
0
CIRCLE
8
0
10
1.58268
20
3.409145
40
0.0859375
0
CIRCLE
8
0
10
1.8189
20
3.409145
40
0.0859375
0
CIRCLE
8
0
10
2.05512
20
3.409145
40
0.0859375
0
CIRCLE
8
0
10
2.29134
20
3.409145
40
0.0859375
0
CIRCLE
8
0
10
2.52756
20
3.409145
40
0.0859375
0
CIRCLE
8
0
10
2.76378
20
3.409145
40
0.0859375
0
CIRCLE
8
0
10
3
20
3.409145
40
0.0859375
0
CIRCLE
8
0
10
3.23622
20
3.409145
40
0.0859375
0
CIRCLE
8
0
10
3.47244
20
3.409145
40
0.0859375
0
CIRCLE
8
0
10
3.70866
20
3.409145
40
0.0859375
0
CIRCLE
8
0
10
3.94488
20
3.409145
40
0.0859375
0
CIRCLE
8
0
10
4.1811
20
3.409145
40
0.0859375
0
CIRCLE
8
0
10
4.41732
20
3.409145
40
0.0859375
0
CIRCLE
8
0
10
4.65354
20
3.409145
40
0.0859375
0
CIRCLE
8
0
10
4.88976
20
3.409145
40
0.0859375
0
CIRCLE
8
0
10
5.12598
20
3.409145
40
0.0859375
0
CIRCLE
8
0
10
5.3622
20
3.409145
40
0.0859375
0
CIRCLE
8
0
10
5.59842
20
3.409145
40
0.0859375
0
CIRCLE
8
0
10
5.83464
20
3.409145
40
0.0859375
0
CIRCLE
8
0
10
0.28347
20
3.6137176
40
0.0859375
0
CIRCLE
8
0
10
0.51969
20
3.6137176
40
0.0859375
0
CIRCLE
8
0
10
0.75591
20
3.6137176
40
0.0859375
0
CIRCLE
8
0
10
0.99213
20
3.6137176
40
0.0859375
0
CIRCLE
8
0
10
1.22835
20
3.6137176
40
0.0859375
0
CIRCLE
8
0
10
1.46457
20
3.6137176
40
0.0859375
0
CIRCLE
8
0
10
1.70079
20
3.6137176
40
0.0859375
0
CIRCLE
8
0
10
1.93701
20
3.6137176
40
0.0859375
0
CIRCLE
8
0
10
2.17323
20
3.6137176
40
0.0859375
0
CIRCLE
8
0
10
2.40945
20
3.6137176
40
0.0859375
0
CIRCLE
8
0
10
2.64567
20
3.6137176
40
0.0859375
0
CIRCLE
8
0
10
2.88189
20
3.6137176
40
0.0859375
0
CIRCLE
8
0
10
3.11811
20
3.6137176
40
0.0859375
0
CIRCLE
8
0
10
3.35433
20
3.6137176
40
0.0859375
0
CIRCLE
8
0
10
3.59055
20
3.6137176
40
0.0859375
0
CIRCLE
8
0
10
3.82677
20
3.6137176
40
0.0859375
0
CIRCLE
8
0
10
4.06299
20
3.6137176
40
0.0859375
0
CIRCLE
8
0
10
4.29921
20
3.6137176
40
0.0859375
0
CIRCLE
8
0
10
4.53543
20
3.6137176
40
0.0859375
0
CIRCLE
8
0
10
4.77165
20
3.6137176
40
0.0859375
0
CIRCLE
8
0
10
5.00787
20
3.6137176
40
0.0859375
0
CIRCLE
8
0
10
5.24409
20
3.6137176
40
0.0859375
0
CIRCLE
8
0
10
5.48031
20
3.6137176
40
0.0859375
0
CIRCLE
8
0
10
5.71653
20
3.6137176
40
0.0859375
0
CIRCLE
8
0
10
0.16536
20
3.8182901
40
0.0859375
0
CIRCLE
8
0
10
0.40158
20
3.8182901
40
0.0859375
0
CIRCLE
8
0
10
0.6378
20
3.8182901
40
0.0859375
0
CIRCLE
8
0
10
0.87402
20
3.8182901
40
0.0859375
0
CIRCLE
8
0
10
1.11024
20
3.8182901
40
0.0859375
0
CIRCLE
8
0
10
1.34646
20
3.8182901
40
0.0859375
0
CIRCLE
8
0
10
1.58268
20
3.8182901
40
0.0859375
0
CIRCLE
8
0
10
1.8189
20
3.8182901
40
0.0859375
0
CIRCLE
8
0
10
2.05512
20
3.8182901
40
0.0859375
0
CIRCLE
8
0
10
2.29134
20
3.8182901
40
0.0859375
0
CIRCLE
8
0
10
2.52756
20
3.8182901
40
0.0859375
0
CIRCLE
8
0
10
2.76378
20
3.8182901
40
0.0859375
0
CIRCLE
8
0
10
3
20
3.8182901
40
0.0859375
0
CIRCLE
8
0
10
3.23622
20
3.8182901
40
0.0859375
0
CIRCLE
8
0
10
3.47244
20
3.8182901
40
0.0859375
0
CIRCLE
8
0
10
3.70866
20
3.8182901
40
0.0859375
0
CIRCLE
8
0
10
3.94488
20
3.8182901
40
0.0859375
0
CIRCLE
8
0
10
4.1811
20
3.8182901
40
0.0859375
0
CIRCLE
8
0
10
4.41732
20
3.8182901
40
0.0859375
0
CIRCLE
8
0
10
4.65354
20
3.8182901
40
0.0859375
0
CIRCLE
8
0
10
4.88976
20
3.8182901
40
0.0859375
0
CIRCLE
8
0
10
5.12598
20
3.8182901
40
0.0859375
0
CIRCLE
8
0
10
5.3622
20
3.8182901
40
0.0859375
0
CIRCLE
8
0
10
5.59842
20
3.8182901
40
0.0859375
0
CIRCLE
8
0
10
5.83464
20
3.8182901
40
0.0859375
0
CIRCLE
8
0
10
0.28347
20
4.0228626
40
0.0859375
0
CIRCLE
8
0
10
0.51969
20
4.0228626
40
0.0859375
0
CIRCLE
8
0
10
0.75591
20
4.0228626
40
0.0859375
0
CIRCLE
8
0
10
0.99213
20
4.0228626
40
0.0859375
0
CIRCLE
8
0
10
1.22835
20
4.0228626
40
0.0859375
0
CIRCLE
8
0
10
1.46457
20
4.0228626
40
0.0859375
0
CIRCLE
8
0
10
1.70079
20
4.0228626
40
0.0859375
0
CIRCLE
8
0
10
1.93701
20
4.0228626
40
0.0859375
0
CIRCLE
8
0
10
2.17323
20
4.0228626
40
0.0859375
0
CIRCLE
8
0
10
2.40945
20
4.0228626
40
0.0859375
0
CIRCLE
8
0
10
2.64567
20
4.0228626
40
0.0859375
0
CIRCLE
8
0
10
2.88189
20
4.0228626
40
0.0859375
0
CIRCLE
8
0
10
3.11811
20
4.0228626
40
0.0859375
0
CIRCLE
8
0
10
3.35433
20
4.0228626
40
0.0859375
0
CIRCLE
8
0
10
3.59055
20
4.0228626
40
0.0859375
0
CIRCLE
8
0
10
3.82677
20
4.0228626
40
0.0859375
0
CIRCLE
8
0
10
4.06299
20
4.0228626
40
0.0859375
0
CIRCLE
8
0
10
4.29921
20
4.0228626
40
0.0859375
0
CIRCLE
8
0
10
4.53543
20
4.0228626
40
0.0859375
0
CIRCLE
8
0
10
4.77165
20
4.0228626
40
0.0859375
0
CIRCLE
8
0
10
5.00787
20
4.0228626
40
0.0859375
0
CIRCLE
8
0
10
5.24409
20
4.0228626
40
0.0859375
0
CIRCLE
8
0
10
5.48031
20
4.0228626
40
0.0859375
0
CIRCLE
8
0
10
5.71653
20
4.0228626
40
0.0859375
0
CIRCLE
8
0
10
0.16536
20
4.2274351
40
0.0859375
0
CIRCLE
8
0
10
0.40158
20
4.2274351
40
0.0859375
0
CIRCLE
8
0
10
0.6378
20
4.2274351
40
0.0859375
0
CIRCLE
8
0
10
0.87402
20
4.2274351
40
0.0859375
0
CIRCLE
8
0
10
1.11024
20
4.2274351
40
0.0859375
0
CIRCLE
8
0
10
1.34646
20
4.2274351
40
0.0859375
0
CIRCLE
8
0
10
1.58268
20
4.2274351
40
0.0859375
0
CIRCLE
8
0
10
1.8189
20
4.2274351
40
0.0859375
0
CIRCLE
8
0
10
2.05512
20
4.2274351
40
0.0859375
0
CIRCLE
8
0
10
2.29134
20
4.2274351
40
0.0859375
0
CIRCLE
8
0
10
2.52756
20
4.2274351
40
0.0859375
0
CIRCLE
8
0
10
2.76378
20
4.2274351
40
0.0859375
0
CIRCLE
8
0
10
3
20
4.2274351
40
0.0859375
0
CIRCLE
8
0
10
3.23622
20
4.2274351
40
0.0859375
0
CIRCLE
8
0
10
3.47244
20
4.2274351
40
0.0859375
0
CIRCLE
8
0
10
3.70866
20
4.2274351
40
0.0859375
0
CIRCLE
8
0
10
3.94488
20
4.2274351
40
0.0859375
0
CIRCLE
8
0
10
4.1811
20
4.2274351
40
0.0859375
0
CIRCLE
8
0
10
4.41732
20
4.2274351
40
0.0859375
0
CIRCLE
8
0
10
4.65354
20
4.2274351
40
0.0859375
0
CIRCLE
8
0
10
4.88976
20
4.2274351
40
0.0859375
0
CIRCLE
8
0
10
5.12598
20
4.2274351
40
0.0859375
0
CIRCLE
8
0
10
5.3622
20
4.2274351
40
0.0859375
0
CIRCLE
8
0
10
5.59842
20
4.2274351
40
0.0859375
0
CIRCLE
8
0
10
5.83464
20
4.2274351
40
0.0859375
0
CIRCLE
8
0
10
0.28347
20
4.4320076
40
0.0859375
0
CIRCLE
8
0
10
0.51969
20
4.4320076
40
0.0859375
0
CIRCLE
8
0
10
0.75591
20
4.4320076
40
0.0859375
0
CIRCLE
8
0
10
0.99213
20
4.4320076
40
0.0859375
0
CIRCLE
8
0
10
1.22835
20
4.4320076
40
0.0859375
0
CIRCLE
8
0
10
1.46457
20
4.4320076
40
0.0859375
0
CIRCLE
8
0
10
1.70079
20
4.4320076
40
0.0859375
0
CIRCLE
8
0
10
1.93701
20
4.4320076
40
0.0859375
0
CIRCLE
8
0
10
2.17323
20
4.4320076
40
0.0859375
0
CIRCLE
8
0
10
2.40945
20
4.4320076
40
0.0859375
0
CIRCLE
8
0
10
2.64567
20
4.4320076
40
0.0859375
0
CIRCLE
8
0
10
2.88189
20
4.4320076
40
0.0859375
0
CIRCLE
8
0
10
3.11811
20
4.4320076
40
0.0859375
0
CIRCLE
8
0
10
3.35433
20
4.4320076
40
0.0859375
0
CIRCLE
8
0
10
3.59055
20
4.4320076
40
0.0859375
0
CIRCLE
8
0
10
3.82677
20
4.4320076
40
0.0859375
0
CIRCLE
8
0
10
4.06299
20
4.4320076
40
0.0859375
0
CIRCLE
8
0
10
4.29921
20
4.4320076
40
0.0859375
0
CIRCLE
8
0
10
4.53543
20
4.4320076
40
0.0859375
0
CIRCLE
8
0
10
4.77165
20
4.4320076
40
0.0859375
0
CIRCLE
8
0
10
5.00787
20
4.4320076
40
0.0859375
0
CIRCLE
8
0
10
5.24409
20
4.4320076
40
0.0859375
0
CIRCLE
8
0
10
5.48031
20
4.4320076
40
0.0859375
0
CIRCLE
8
0
10
5.71653
20
4.4320076
40
0.0859375
0
CIRCLE
8
0
10
0.16536
20
4.6365802
40
0.0859375
0
CIRCLE
8
0
10
0.40158
20
4.6365802
40
0.0859375
0
CIRCLE
8
0
10
0.6378
20
4.6365802
40
0.0859375
0
CIRCLE
8
0
10
0.87402
20
4.6365802
40
0.0859375
0
CIRCLE
8
0
10
1.11024
20
4.6365802
40
0.0859375
0
CIRCLE
8
0
10
1.34646
20
4.6365802
40
0.0859375
0
CIRCLE
8
0
10
1.58268
20
4.6365802
40
0.0859375
0
CIRCLE
8
0
10
1.8189
20
4.6365802
40
0.0859375
0
CIRCLE
8
0
10
2.05512
20
4.6365802
40
0.0859375
0
CIRCLE
8
0
10
2.29134
20
4.6365802
40
0.0859375
0
CIRCLE
8
0
10
2.52756
20
4.6365802
40
0.0859375
0
CIRCLE
8
0
10
2.76378
20
4.6365802
40
0.0859375
0
CIRCLE
8
0
10
3
20
4.6365802
40
0.0859375
0
CIRCLE
8
0
10
3.23622
20
4.6365802
40
0.0859375
0
CIRCLE
8
0
10
3.47244
20
4.6365802
40
0.0859375
0
CIRCLE
8
0
10
3.70866
20
4.6365802
40
0.0859375
0
CIRCLE
8
0
10
3.94488
20
4.6365802
40
0.0859375
0
CIRCLE
8
0
10
4.1811
20
4.6365802
40
0.0859375
0
CIRCLE
8
0
10
4.41732
20
4.6365802
40
0.0859375
0
CIRCLE
8
0
10
4.65354
20
4.6365802
40
0.0859375
0
CIRCLE
8
0
10
4.88976
20
4.6365802
40
0.0859375
0
CIRCLE
8
0
10
5.12598
20
4.6365802
40
0.0859375
0
CIRCLE
8
0
10
5.3622
20
4.6365802
40
0.0859375
0
CIRCLE
8
0
10
5.59842
20
4.6365802
40
0.0859375
0
CIRCLE
8
0
10
5.83464
20
4.6365802
40
0.0859375
0
CIRCLE
8
0
10
0.28347
20
4.8411527
40
0.0859375
0
CIRCLE
8
0
10
0.51969
20
4.8411527
40
0.0859375
0
CIRCLE
8
0
10
0.75591
20
4.8411527
40
0.0859375
0
CIRCLE
8
0
10
0.99213
20
4.8411527
40
0.0859375
0
CIRCLE
8
0
10
1.22835
20
4.8411527
40
0.0859375
0
CIRCLE
8
0
10
1.46457
20
4.8411527
40
0.0859375
0
CIRCLE
8
0
10
1.70079
20
4.8411527
40
0.0859375
0
CIRCLE
8
0
10
1.93701
20
4.8411527
40
0.0859375
0
CIRCLE
8
0
10
2.17323
20
4.8411527
40
0.0859375
0
CIRCLE
8
0
10
2.40945
20
4.8411527
40
0.0859375
0
CIRCLE
8
0
10
2.64567
20
4.8411527
40
0.0859375
0
CIRCLE
8
0
10
2.88189
20
4.8411527
40
0.0859375
0
CIRCLE
8
0
10
3.11811
20
4.8411527
40
0.0859375
0
CIRCLE
8
0
10
3.35433
20
4.8411527
40
0.0859375
0
CIRCLE
8
0
10
3.59055
20
4.8411527
40
0.0859375
0
CIRCLE
8
0
10
3.82677
20
4.8411527
40
0.0859375
0
CIRCLE
8
0
10
4.06299
20
4.8411527
40
0.0859375
0
CIRCLE
8
0
10
4.29921
20
4.8411527
40
0.0859375
0
CIRCLE
8
0
10
4.53543
20
4.8411527
40
0.0859375
0
CIRCLE
8
0
10
4.77165
20
4.8411527
40
0.0859375
0
CIRCLE
8
0
10
5.00787
20
4.8411527
40
0.0859375
0
CIRCLE
8
0
10
5.24409
20
4.8411527
40
0.0859375
0
CIRCLE
8
0
10
5.48031
20
4.8411527
40
0.0859375
0
CIRCLE
8
0
10
5.71653
20
4.8411527
40
0.0859375
0
CIRCLE
8
0
10
0.16536
20
5.0457252
40
0.0859375
0
CIRCLE
8
0
10
0.40158
20
5.0457252
40
0.0859375
0
CIRCLE
8
0
10
0.6378
20
5.0457252
40
0.0859375
0
CIRCLE
8
0
10
0.87402
20
5.0457252
40
0.0859375
0
CIRCLE
8
0
10
1.11024
20
5.0457252
40
0.0859375
0
CIRCLE
8
0
10
1.34646
20
5.0457252
40
0.0859375
0
CIRCLE
8
0
10
1.58268
20
5.0457252
40
0.0859375
0
CIRCLE
8
0
10
1.8189
20
5.0457252
40
0.0859375
0
CIRCLE
8
0
10
2.05512
20
5.0457252
40
0.0859375
0
CIRCLE
8
0
10
2.29134
20
5.0457252
40
0.0859375
0
CIRCLE
8
0
10
2.52756
20
5.0457252
40
0.0859375
0
CIRCLE
8
0
10
2.76378
20
5.0457252
40
0.0859375
0
CIRCLE
8
0
10
3
20
5.0457252
40
0.0859375
0
CIRCLE
8
0
10
3.23622
20
5.0457252
40
0.0859375
0
CIRCLE
8
0
10
3.47244
20
5.0457252
40
0.0859375
0
CIRCLE
8
0
10
3.70866
20
5.0457252
40
0.0859375
0
CIRCLE
8
0
10
3.94488
20
5.0457252
40
0.0859375
0
CIRCLE
8
0
10
4.1811
20
5.0457252
40
0.0859375
0
CIRCLE
8
0
10
4.41732
20
5.0457252
40
0.0859375
0
CIRCLE
8
0
10
4.65354
20
5.0457252
40
0.0859375
0
CIRCLE
8
0
10
4.88976
20
5.0457252
40
0.0859375
0
CIRCLE
8
0
10
5.12598
20
5.0457252
40
0.0859375
0
CIRCLE
8
0
10
5.3622
20
5.0457252
40
0.0859375
0
CIRCLE
8
0
10
5.59842
20
5.0457252
40
0.0859375
0
CIRCLE
8
0
10
5.83464
20
5.0457252
40
0.0859375
0
CIRCLE
8
0
10
0.28347
20
5.2502977
40
0.0859375
0
CIRCLE
8
0
10
0.51969
20
5.2502977
40
0.0859375
0
CIRCLE
8
0
10
0.75591
20
5.2502977
40
0.0859375
0
CIRCLE
8
0
10
0.99213
20
5.2502977
40
0.0859375
0
CIRCLE
8
0
10
1.22835
20
5.2502977
40
0.0859375
0
CIRCLE
8
0
10
1.46457
20
5.2502977
40
0.0859375
0
CIRCLE
8
0
10
1.70079
20
5.2502977
40
0.0859375
0
CIRCLE
8
0
10
1.93701
20
5.2502977
40
0.0859375
0
CIRCLE
8
0
10
2.17323
20
5.2502977
40
0.0859375
0
CIRCLE
8
0
10
2.40945
20
5.2502977
40
0.0859375
0
CIRCLE
8
0
10
2.64567
20
5.2502977
40
0.0859375
0
CIRCLE
8
0
10
2.88189
20
5.2502977
40
0.0859375
0
CIRCLE
8
0
10
3.11811
20
5.2502977
40
0.0859375
0
CIRCLE
8
0
10
3.35433
20
5.2502977
40
0.0859375
0
CIRCLE
8
0
10
3.59055
20
5.2502977
40
0.0859375
0
CIRCLE
8
0
10
3.82677
20
5.2502977
40
0.0859375
0
CIRCLE
8
0
10
4.06299
20
5.2502977
40
0.0859375
0
CIRCLE
8
0
10
4.29921
20
5.2502977
40
0.0859375
0
CIRCLE
8
0
10
4.53543
20
5.2502977
40
0.0859375
0
CIRCLE
8
0
10
4.77165
20
5.2502977
40
0.0859375
0
CIRCLE
8
0
10
5.00787
20
5.2502977
40
0.0859375
0
CIRCLE
8
0
10
5.24409
20
5.2502977
40
0.0859375
0
CIRCLE
8
0
10
5.48031
20
5.2502977
40
0.0859375
0
CIRCLE
8
0
10
5.71653
20
5.2502977
40
0.0859375
0
CIRCLE
8
0
10
0.16536
20
5.4548703
40
0.0859375
0
CIRCLE
8
0
10
0.40158
20
5.4548703
40
0.0859375
0
CIRCLE
8
0
10
0.6378
20
5.4548703
40
0.0859375
0
CIRCLE
8
0
10
0.87402
20
5.4548703
40
0.0859375
0
CIRCLE
8
0
10
1.11024
20
5.4548703
40
0.0859375
0
CIRCLE
8
0
10
1.34646
20
5.4548703
40
0.0859375
0
CIRCLE
8
0
10
1.58268
20
5.4548703
40
0.0859375
0
CIRCLE
8
0
10
1.8189
20
5.4548703
40
0.0859375
0
CIRCLE
8
0
10
2.05512
20
5.4548703
40
0.0859375
0
CIRCLE
8
0
10
2.29134
20
5.4548703
40
0.0859375
0
CIRCLE
8
0
10
2.52756
20
5.4548703
40
0.0859375
0
CIRCLE
8
0
10
2.76378
20
5.4548703
40
0.0859375
0
CIRCLE
8
0
10
3
20
5.4548703
40
0.0859375
0
CIRCLE
8
0
10
3.23622
20
5.4548703
40
0.0859375
0
CIRCLE
8
0
10
3.47244
20
5.4548703
40
0.0859375
0
CIRCLE
8
0
10
3.70866
20
5.4548703
40
0.0859375
0
CIRCLE
8
0
10
3.94488
20
5.4548703
40
0.0859375
0
CIRCLE
8
0
10
4.1811
20
5.4548703
40
0.0859375
0
CIRCLE
8
0
10
4.41732
20
5.4548703
40
0.0859375
0
CIRCLE
8
0
10
4.65354
20
5.4548703
40
0.0859375
0
CIRCLE
8
0
10
4.88976
20
5.4548703
40
0.0859375
0
CIRCLE
8
0
10
5.12598
20
5.4548703
40
0.0859375
0
CIRCLE
8
0
10
5.3622
20
5.4548703
40
0.0859375
0
CIRCLE
8
0
10
5.59842
20
5.4548703
40
0.0859375
0
CIRCLE
8
0
10
5.83464
20
5.4548703
40
0.0859375
0
CIRCLE
8
0
10
0.28347
20
5.6594428
40
0.0859375
0
CIRCLE
8
0
10
0.51969
20
5.6594428
40
0.0859375
0
CIRCLE
8
0
10
0.75591
20
5.6594428
40
0.0859375
0
CIRCLE
8
0
10
0.99213
20
5.6594428
40
0.0859375
0
CIRCLE
8
0
10
1.22835
20
5.6594428
40
0.0859375
0
CIRCLE
8
0
10
1.46457
20
5.6594428
40
0.0859375
0
CIRCLE
8
0
10
1.70079
20
5.6594428
40
0.0859375
0
CIRCLE
8
0
10
1.93701
20
5.6594428
40
0.0859375
0
CIRCLE
8
0
10
2.17323
20
5.6594428
40
0.0859375
0
CIRCLE
8
0
10
2.40945
20
5.6594428
40
0.0859375
0
CIRCLE
8
0
10
2.64567
20
5.6594428
40
0.0859375
0
CIRCLE
8
0
10
2.88189
20
5.6594428
40
0.0859375
0
CIRCLE
8
0
10
3.11811
20
5.6594428
40
0.0859375
0
CIRCLE
8
0
10
3.35433
20
5.6594428
40
0.0859375
0
CIRCLE
8
0
10
3.59055
20
5.6594428
40
0.0859375
0
CIRCLE
8
0
10
3.82677
20
5.6594428
40
0.0859375
0
CIRCLE
8
0
10
4.06299
20
5.6594428
40
0.0859375
0
CIRCLE
8
0
10
4.29921
20
5.6594428
40
0.0859375
0
CIRCLE
8
0
10
4.53543
20
5.6594428
40
0.0859375
0
CIRCLE
8
0
10
4.77165
20
5.6594428
40
0.0859375
0
CIRCLE
8
0
10
5.00787
20
5.6594428
40
0.0859375
0
CIRCLE
8
0
10
5.24409
20
5.6594428
40
0.0859375
0
CIRCLE
8
0
10
5.48031
20
5.6594428
40
0.0859375
0
CIRCLE
8
0
10
5.71653
20
5.6594428
40
0.0859375
0
CIRCLE
8
0
10
0.16536
20
5.8640153
40
0.0859375
0
CIRCLE
8
0
10
0.40158
20
5.8640153
40
0.0859375
0
CIRCLE
8
0
10
0.6378
20
5.8640153
40
0.0859375
0
CIRCLE
8
0
10
0.87402
20
5.8640153
40
0.0859375
0
CIRCLE
8
0
10
1.11024
20
5.8640153
40
0.0859375
0
CIRCLE
8
0
10
1.34646
20
5.8640153
40
0.0859375
0
CIRCLE
8
0
10
1.58268
20
5.8640153
40
0.0859375
0
CIRCLE
8
0
10
1.8189
20
5.8640153
40
0.0859375
0
CIRCLE
8
0
10
2.05512
20
5.8640153
40
0.0859375
0
CIRCLE
8
0
10
2.29134
20
5.8640153
40
0.0859375
0
CIRCLE
8
0
10
2.52756
20
5.8640153
40
0.0859375
0
CIRCLE
8
0
10
2.76378
20
5.8640153
40
0.0859375
0
CIRCLE
8
0
10
3
20
5.8640153
40
0.0859375
0
CIRCLE
8
0
10
3.23622
20
5.8640153
40
0.0859375
0
CIRCLE
8
0
10
3.47244
20
5.8640153
40
0.0859375
0
CIRCLE
8
0
10
3.70866
20
5.8640153
40
0.0859375
0
CIRCLE
8
0
10
3.94488
20
5.8640153
40
0.0859375
0
CIRCLE
8
0
10
4.1811
20
5.8640153
40
0.0859375
0
CIRCLE
8
0
10
4.41732
20
5.8640153
40
0.0859375
0
CIRCLE
8
0
10
4.65354
20
5.8640153
40
0.0859375
0
CIRCLE
8
0
10
4.88976
20
5.8640153
40
0.0859375
0
CIRCLE
8
0
10
5.12598
20
5.8640153
40
0.0859375
0
CIRCLE
8
0
10
5.3622
20
5.8640153
40
0.0859375
0
CIRCLE
8
0
10
5.59842
20
5.8640153
40
0.0859375
0
CIRCLE
8
0
10
5.83464
20
5.8640153
40
0.0859375
0
ENDSEC
0
EOF
